<svg width="187" height="60" viewBox="0 0 187 60" fill="none" xmlns="http://www.w3.org/2000/svg">
<path fill-rule="evenodd" clip-rule="evenodd" d="M102 18.2246C101.36 10.4131 97.4337 5.03441 92.3979 2.55707C86.0606 -0.589814 76.8639 0.503785 69.3103 0.503785L21.2572 0.481467C19.4435 0.726969 20.4677 0.0350999 20.0196 1.30725C20.041 2.51244 23.2203 2.04375 25.3328 2.04375H67.8593C74.3674 2.04375 84.9296 1.10638 90.5629 3.29358C92.1845 3.91849 93.1021 4.72195 94.3823 5.63701C98.1378 8.33753 100.208 13.4484 100.613 18.4031L102 18.2246Z" fill="#E41E2B"/>
<path fill-rule="evenodd" clip-rule="evenodd" d="M101.915 19.8315C101.253 27.6429 97.3484 33.0216 92.3126 35.499C85.9753 38.6235 76.7786 37.5522 69.225 37.5522L21.1719 37.5746C19.3582 37.3291 20.3824 38.0209 19.9343 36.7488C19.9343 35.5436 23.1137 36.0123 25.2475 36.0123H67.774C74.2821 36.0123 84.8443 36.9496 90.4776 34.7625C92.0992 34.1375 92.9954 33.3341 94.2971 32.419C98.0525 29.7185 100.122 24.6076 100.528 19.6529L101.915 19.8315Z" fill="#E41E2B"/>
<path fill-rule="evenodd" clip-rule="evenodd" d="M13.3195 0.52609L13.8743 3.29357L17.2457 2.75793V0.0350863C15.9228 -0.0988238 14.5571 0.168996 13.3195 0.52609Z" fill="#E41E2B"/>
<path fill-rule="evenodd" clip-rule="evenodd" d="M13.2342 37.2844C14.3224 37.8647 15.9868 38.1102 17.267 37.9539L17.1817 35.2757L13.8743 34.7401L13.2342 37.2844Z" fill="#E41E2B"/>
<path fill-rule="evenodd" clip-rule="evenodd" d="M8.11308 3.11503C8.60385 4.14167 8.98794 4.32022 9.32934 5.25759C10.3749 5.03441 11.4631 4.38717 12.402 3.71762L11.7619 1.24029C10.5456 1.41883 8.9666 2.17766 8.11308 3.11503Z" fill="#E41E2B"/>
<path fill-rule="evenodd" clip-rule="evenodd" d="M3.99487 7.04305L5.89395 8.69461C6.96085 7.98042 6.51275 7.84651 8.21979 6.52973C7.89972 5.45845 7.47296 4.76658 6.53409 4.16399C5.78726 4.65499 4.2936 6.26191 3.99487 7.04305Z" fill="#FAA41A"/>
<path fill-rule="evenodd" clip-rule="evenodd" d="M1.1356 12.1986L3.63214 13.1136C4.10157 12.0647 4.65636 11.0827 4.97643 10.0783C4.91241 10.0114 4.80572 9.85515 4.78439 9.89978C4.50699 10.4354 4.74171 9.02937 2.7146 8.53836C2.15982 9.72124 1.477 10.6586 1.1356 12.1986Z" fill="#FAA41A"/>
<path fill-rule="evenodd" clip-rule="evenodd" d="M0.0686786 18.046L2.56522 18.0683L3.09867 14.609L0.452762 13.8501C0.26072 15.3008 -0.166039 16.5953 0.0686786 18.046Z" fill="#FAA41A"/>
<path fill-rule="evenodd" clip-rule="evenodd" d="M8.13444 34.874C9.05197 35.9007 10.4389 36.5479 11.8472 36.7934L12.402 34.2938L9.71345 32.7538C9.32936 33.0216 9.58542 32.7538 9.24401 33.1778L8.13444 34.874Z" fill="#009E4C"/>
<path fill-rule="evenodd" clip-rule="evenodd" d="M1.2209 25.7235C1.41294 27.5759 2.30914 28.1785 2.65054 29.4953C3.65343 29.1829 4.27223 28.7142 4.97638 27.933C4.72032 27.2412 4.63497 27.3081 4.29357 26.6386C4.08019 26.1699 3.88814 25.545 3.61075 24.9424L1.2209 25.7235Z" fill="#006FBA"/>
<path fill-rule="evenodd" clip-rule="evenodd" d="M3.95216 31.3477L6.53405 33.8251C7.25954 33.4456 7.92101 32.4413 8.28376 31.4816C6.70475 30.7898 7.00348 30.2541 5.95792 29.3837C4.69898 30.1425 4.29356 30.3657 3.95216 31.3477Z" fill="#006FBA"/>
<path fill-rule="evenodd" clip-rule="evenodd" d="M0.388748 24.0496L3.09867 23.447L2.58656 19.9654L0.047341 19.8984L0.388748 24.0496Z" fill="#006FBA"/>
<path fill-rule="evenodd" clip-rule="evenodd" d="M97.3483 18.2692C96.9002 13.3368 95.2572 10.9488 92.4193 8.29287C89.496 5.5254 85.2284 5.36917 80.5767 5.36917H22.4522C16.7976 5.36917 14.5785 5.12367 10.4176 8.09201C4.33625 12.4441 2.88527 22.0633 9.15862 28.8034C10.5029 30.2318 11.6978 30.9683 13.5969 31.7495C15.8587 32.6868 17.6511 32.6422 20.1263 32.6422H78.2722C84.0121 32.6422 90.7336 33.3341 94.8518 27.1296C95.9614 25.4334 96.6869 23.7149 97.2416 21.4384L97.3697 19.7645L97.3483 18.2692Z" fill="#FAA41A"/>
<path fill-rule="evenodd" clip-rule="evenodd" d="M16.5202 7.02071C14.4718 7.3778 12.8287 8.02503 11.4204 9.14095C6.64073 12.8458 5.12574 19.452 7.89967 24.6968C12.1886 32.7984 19.9769 31.1022 29.9631 31.1022C34.4227 31.1022 83.1586 31.4147 86.1673 30.9906C93.2941 29.9863 98.5859 21.2821 94.5957 13.2698C90.4135 4.87815 80.9821 6.90912 72.4896 6.90912C68.4994 6.90912 19.0381 6.59666 16.5202 7.02071Z" fill="#FEFEFE"/>
<path d="M27.7345 16V11.6364H28.2629V15.5312H30.2913V16H27.7345Z" fill="black"/>
<path d="M31.1095 16V11.6364H33.743V12.1051H31.6379V13.5795H33.6066V14.0483H31.6379V15.5312H33.7771V16H31.1095Z" fill="black"/>
<path d="M36.042 16H34.6954V11.6364H36.1017C36.5249 11.6364 36.8872 11.7237 37.1883 11.8984C37.4894 12.0717 37.7203 12.321 37.8808 12.6463C38.0413 12.9702 38.1215 13.358 38.1215 13.8097C38.1215 14.2642 38.0406 14.6555 37.8786 14.9837C37.7167 15.3104 37.4809 15.5618 37.1713 15.7379C36.8616 15.9126 36.4852 16 36.042 16ZM35.2238 15.5312H36.0079C36.3687 15.5312 36.6677 15.4616 36.9049 15.3224C37.1421 15.1832 37.319 14.9851 37.4355 14.728C37.5519 14.4709 37.6102 14.1648 37.6102 13.8097C37.6102 13.4574 37.5526 13.1541 37.4376 12.8999C37.3225 12.6442 37.1507 12.4482 36.922 12.3118C36.6933 12.174 36.4085 12.1051 36.0676 12.1051H35.2238V15.5312Z" fill="black"/>
<path d="M41.9823 16.0597C41.7323 16.0597 41.5072 16.0099 41.3069 15.9105C41.1066 15.8111 40.9461 15.6747 40.8254 15.5014C40.7046 15.3281 40.6386 15.1307 40.6272 14.9091H41.1386C41.1585 15.1065 41.248 15.2699 41.407 15.3991C41.5676 15.527 41.7593 15.5909 41.9823 15.5909C42.1613 15.5909 42.3204 15.549 42.4596 15.4652C42.6002 15.3814 42.7103 15.2663 42.7899 15.12C42.8708 14.9723 42.9113 14.8054 42.9113 14.6193C42.9113 14.429 42.8694 14.2592 42.7856 14.1101C42.7032 13.9595 42.5896 13.8409 42.4447 13.7543C42.2998 13.6676 42.1343 13.6236 41.9482 13.6222C41.8147 13.6207 41.6776 13.6413 41.537 13.6839C41.3964 13.7251 41.2806 13.7784 41.1897 13.8438L40.6954 13.7841L40.9596 11.6364H43.2267V12.1051H41.4028L41.2494 13.392H41.2749C41.3644 13.321 41.4767 13.2621 41.6116 13.2152C41.7465 13.1683 41.8872 13.1449 42.0335 13.1449C42.3005 13.1449 42.5384 13.2088 42.7472 13.3366C42.9575 13.4631 43.1222 13.6364 43.2416 13.8565C43.3623 14.0767 43.4227 14.3281 43.4227 14.6108C43.4227 14.8892 43.3602 15.1378 43.2352 15.3565C43.1116 15.5739 42.9411 15.7457 42.7238 15.8722C42.5065 15.9972 42.2593 16.0597 41.9823 16.0597Z" fill="black"/>
<path d="M45.6924 16.0597C45.3714 16.0597 45.0979 15.9723 44.8721 15.7976C44.6462 15.6214 44.4736 15.3665 44.3543 15.0327C44.235 14.6974 44.1753 14.2926 44.1753 13.8182C44.1753 13.3466 44.235 12.9439 44.3543 12.6101C44.4751 12.2749 44.6484 12.0192 44.8742 11.843C45.1015 11.6655 45.3742 11.5767 45.6924 11.5767C46.0106 11.5767 46.2826 11.6655 46.5084 11.843C46.7357 12.0192 46.909 12.2749 47.0283 12.6101C47.1491 12.9439 47.2094 13.3466 47.2094 13.8182C47.2094 14.2926 47.1498 14.6974 47.0305 15.0327C46.9111 15.3665 46.7385 15.6214 46.5127 15.7976C46.2868 15.9723 46.0134 16.0597 45.6924 16.0597ZM45.6924 15.5909C46.0106 15.5909 46.2577 15.4375 46.4339 15.1307C46.61 14.8239 46.6981 14.3864 46.6981 13.8182C46.6981 13.4403 46.6576 13.1186 46.5766 12.853C46.4971 12.5874 46.382 12.3849 46.2314 12.2457C46.0823 12.1065 45.9026 12.0369 45.6924 12.0369C45.377 12.0369 45.1306 12.1925 44.953 12.5036C44.7755 12.8132 44.6867 13.2514 44.6867 13.8182C44.6867 14.196 44.7265 14.517 44.806 14.7812C44.8856 15.0455 44.9999 15.2464 45.1491 15.3842C45.2996 15.522 45.4807 15.5909 45.6924 15.5909Z" fill="black"/>
<path d="M50.2435 15.1818V14.9517C50.2435 14.7926 50.2762 14.647 50.3415 14.5149C50.4083 14.3814 50.5049 14.2749 50.6313 14.1953C50.7591 14.1143 50.914 14.0739 51.0958 14.0739C51.2805 14.0739 51.4353 14.1143 51.5603 14.1953C51.6853 14.2749 51.7797 14.3814 51.8437 14.5149C51.9076 14.647 51.9395 14.7926 51.9395 14.9517V15.1818C51.9395 15.3409 51.9069 15.4872 51.8415 15.6207C51.7776 15.7528 51.6824 15.8594 51.556 15.9403C51.431 16.0199 51.2776 16.0597 51.0958 16.0597C50.9111 16.0597 50.7556 16.0199 50.6292 15.9403C50.5028 15.8594 50.4069 15.7528 50.3415 15.6207C50.2762 15.4872 50.2435 15.3409 50.2435 15.1818ZM50.6782 14.9517V15.1818C50.6782 15.3139 50.7094 15.4325 50.7719 15.5376C50.8344 15.6413 50.9424 15.6932 51.0958 15.6932C51.2449 15.6932 51.3501 15.6413 51.4111 15.5376C51.4736 15.4325 51.5049 15.3139 51.5049 15.1818V14.9517C51.5049 14.8196 51.4751 14.7017 51.4154 14.598C51.3557 14.4929 51.2492 14.4403 51.0958 14.4403C50.9466 14.4403 50.8394 14.4929 50.7741 14.598C50.7101 14.7017 50.6782 14.8196 50.6782 14.9517ZM48.0702 12.6847V12.4545C48.0702 12.2955 48.1029 12.1499 48.1682 12.0178C48.235 11.8842 48.3316 11.7777 48.458 11.6982C48.5858 11.6172 48.7407 11.5767 48.9225 11.5767C49.1072 11.5767 49.262 11.6172 49.387 11.6982C49.512 11.7777 49.6064 11.8842 49.6704 12.0178C49.7343 12.1499 49.7662 12.2955 49.7662 12.4545V12.6847C49.7662 12.8437 49.7336 12.9901 49.6682 13.1236C49.6043 13.2557 49.5091 13.3622 49.3827 13.4432C49.2577 13.5227 49.1043 13.5625 48.9225 13.5625C48.7378 13.5625 48.5823 13.5227 48.4559 13.4432C48.3295 13.3622 48.2336 13.2557 48.1682 13.1236C48.1029 12.9901 48.0702 12.8437 48.0702 12.6847ZM48.5049 12.4545V12.6847C48.5049 12.8168 48.5361 12.9354 48.5986 13.0405C48.6611 13.1442 48.7691 13.196 48.9225 13.196C49.0716 13.196 49.1768 13.1442 49.2378 13.0405C49.3003 12.9354 49.3316 12.8168 49.3316 12.6847V12.4545C49.3316 12.3224 49.3018 12.2045 49.2421 12.1009C49.1824 11.9957 49.0759 11.9432 48.9225 11.9432C48.7733 11.9432 48.6661 11.9957 48.6008 12.1009C48.5368 12.2045 48.5049 12.3224 48.5049 12.4545ZM48.2322 16L51.2322 11.6364H51.718L48.718 16H48.2322Z" fill="black"/>
<path d="M55.9623 16.0682C55.6469 16.0682 55.3749 15.9986 55.1462 15.8594C54.9189 15.7188 54.7435 15.5227 54.6199 15.2713C54.4978 15.0185 54.4367 14.7244 54.4367 14.3892C54.4367 14.054 54.4978 13.7585 54.6199 13.5028C54.7435 13.2457 54.9154 13.0455 55.1356 12.902C55.3572 12.7571 55.6157 12.6847 55.9111 12.6847C56.0816 12.6847 56.2499 12.7131 56.4161 12.7699C56.5823 12.8267 56.7336 12.919 56.8699 13.0469C57.0063 13.1733 57.115 13.3409 57.1959 13.5497C57.2769 13.7585 57.3174 14.0156 57.3174 14.321V14.5341H54.7947V14.0994H56.806C56.806 13.9148 56.7691 13.75 56.6952 13.6051C56.6228 13.4602 56.5191 13.3459 56.3841 13.2621C56.2506 13.1783 56.093 13.1364 55.9111 13.1364C55.7108 13.1364 55.5376 13.1861 55.3912 13.2855C55.2464 13.3835 55.1349 13.5114 55.0567 13.669C54.9786 13.8267 54.9395 13.9957 54.9395 14.1761V14.4659C54.9395 14.7131 54.9822 14.9226 55.0674 15.0945C55.154 15.2649 55.2741 15.3949 55.4275 15.4844C55.5809 15.5724 55.7591 15.6165 55.9623 15.6165C56.0944 15.6165 56.2137 15.598 56.3202 15.5611C56.4282 15.5227 56.5212 15.4659 56.5993 15.3906C56.6775 15.3139 56.7378 15.2188 56.7805 15.1051L57.2662 15.2415C57.2151 15.4062 57.1292 15.5511 57.0084 15.6761C56.8877 15.7997 56.7385 15.8963 56.561 15.9659C56.3834 16.0341 56.1839 16.0682 55.9623 16.0682Z" fill="black"/>
<path d="M59.5056 12.7273V13.1534H57.8096V12.7273H59.5056ZM58.3039 11.9432H58.8067V15.0625C58.8067 15.2045 58.8273 15.3111 58.8685 15.3821C58.9111 15.4517 58.9651 15.4986 59.0305 15.5227C59.0972 15.5455 59.1675 15.5568 59.2414 15.5568C59.2968 15.5568 59.3422 15.554 59.3778 15.5483C59.4133 15.5412 59.4417 15.5355 59.463 15.5312L59.5653 15.983C59.5312 15.9957 59.4836 16.0085 59.4225 16.0213C59.3614 16.0355 59.284 16.0426 59.1903 16.0426C59.0482 16.0426 58.909 16.0121 58.7726 15.951C58.6377 15.8899 58.5255 15.7969 58.436 15.6719C58.3479 15.5469 58.3039 15.3892 58.3039 15.1989V11.9432Z" fill="black"/>
<path d="M61.5564 16.0682C61.2496 16.0682 60.9854 15.9957 60.7638 15.8509C60.5422 15.706 60.3717 15.5064 60.2524 15.2521C60.1331 14.9979 60.0734 14.7074 60.0734 14.3807C60.0734 14.0483 60.1345 13.755 60.2567 13.5007C60.3802 13.245 60.5521 13.0455 60.7723 12.902C60.9939 12.7571 61.2524 12.6847 61.5479 12.6847C61.778 12.6847 61.9854 12.7273 62.17 12.8125C62.3547 12.8977 62.5059 13.017 62.6238 13.1705C62.7417 13.3239 62.8149 13.5028 62.8433 13.7074H62.3405C62.3021 13.5582 62.2169 13.4261 62.0848 13.3111C61.9541 13.1946 61.778 13.1364 61.5564 13.1364C61.3604 13.1364 61.1885 13.1875 61.0407 13.2898C60.8944 13.3906 60.7801 13.5334 60.6977 13.718C60.6167 13.9013 60.5763 14.1165 60.5763 14.3636C60.5763 14.6165 60.616 14.8366 60.6956 15.0241C60.7765 15.2116 60.8902 15.3572 61.0365 15.4609C61.1842 15.5646 61.3575 15.6165 61.5564 15.6165C61.6871 15.6165 61.8057 15.5937 61.9122 15.5483C62.0187 15.5028 62.1089 15.4375 62.1828 15.3523C62.2567 15.267 62.3092 15.1648 62.3405 15.0455H62.8433C62.8149 15.2386 62.7446 15.4126 62.6324 15.5675C62.5216 15.7209 62.3746 15.843 62.1913 15.9339C62.0095 16.0234 61.7979 16.0682 61.5564 16.0682Z" fill="black"/>
<path d="M66.6381 16.0682C66.3227 16.0682 66.0507 15.9986 65.822 15.8594C65.5947 15.7188 65.4193 15.5227 65.2957 15.2713C65.1736 15.0185 65.1125 14.7244 65.1125 14.3892C65.1125 14.054 65.1736 13.7585 65.2957 13.5028C65.4193 13.2457 65.5912 13.0455 65.8113 12.902C66.0329 12.7571 66.2915 12.6847 66.5869 12.6847C66.7574 12.6847 66.9257 12.7131 67.0919 12.7699C67.2581 12.8267 67.4094 12.919 67.5457 13.0469C67.6821 13.1733 67.7907 13.3409 67.8717 13.5497C67.9527 13.7585 67.9932 14.0156 67.9932 14.321V14.5341H65.4704V14.0994H67.4818C67.4818 13.9148 67.4449 13.75 67.371 13.6051C67.2986 13.4602 67.1949 13.3459 67.0599 13.2621C66.9264 13.1783 66.7687 13.1364 66.5869 13.1364C66.3866 13.1364 66.2133 13.1861 66.067 13.2855C65.9221 13.3835 65.8106 13.5114 65.7325 13.669C65.6544 13.8267 65.6153 13.9957 65.6153 14.1761V14.4659C65.6153 14.7131 65.6579 14.9226 65.7432 15.0945C65.8298 15.2649 65.9498 15.3949 66.1032 15.4844C66.2567 15.5724 66.4349 15.6165 66.6381 15.6165C66.7702 15.6165 66.8895 15.598 66.996 15.5611C67.104 15.5227 67.197 15.4659 67.2751 15.3906C67.3532 15.3139 67.4136 15.2188 67.4562 15.1051L67.942 15.2415C67.8909 15.4062 67.805 15.5511 67.6842 15.6761C67.5635 15.7997 67.4143 15.8963 67.2368 15.9659C67.0592 16.0341 66.8596 16.0682 66.6381 16.0682Z" fill="black"/>
<path d="M70.1814 12.7273V13.1534H68.4854V12.7273H70.1814ZM68.9797 11.9432H69.4825V15.0625C69.4825 15.2045 69.5031 15.3111 69.5443 15.3821C69.5869 15.4517 69.6409 15.4986 69.7062 15.5227C69.773 15.5455 69.8433 15.5568 69.9172 15.5568C69.9726 15.5568 70.018 15.554 70.0535 15.5483C70.089 15.5412 70.1175 15.5355 70.1388 15.5312L70.241 15.983C70.2069 15.9957 70.1594 16.0085 70.0983 16.0213C70.0372 16.0355 69.9598 16.0426 69.866 16.0426C69.724 16.0426 69.5848 16.0121 69.4484 15.951C69.3135 15.8899 69.2013 15.7969 69.1118 15.6719C69.0237 15.5469 68.9797 15.3892 68.9797 15.1989V11.9432Z" fill="black"/>
<path d="M72.2322 16.0682C71.9253 16.0682 71.6611 15.9957 71.4395 15.8509C71.218 15.706 71.0475 15.5064 70.9282 15.2521C70.8089 14.9979 70.7492 14.7074 70.7492 14.3807C70.7492 14.0483 70.8103 13.755 70.9324 13.5007C71.056 13.245 71.2279 13.0455 71.4481 12.902C71.6697 12.7571 71.9282 12.6847 72.2236 12.6847C72.4537 12.6847 72.6611 12.7273 72.8458 12.8125C73.0305 12.8977 73.1817 13.017 73.2996 13.1705C73.4175 13.3239 73.4907 13.5028 73.5191 13.7074H73.0162C72.9779 13.5582 72.8927 13.4261 72.7606 13.3111C72.6299 13.1946 72.4537 13.1364 72.2322 13.1364C72.0361 13.1364 71.8643 13.1875 71.7165 13.2898C71.5702 13.3906 71.4559 13.5334 71.3735 13.718C71.2925 13.9013 71.252 14.1165 71.252 14.3636C71.252 14.6165 71.2918 14.8366 71.3714 15.0241C71.4523 15.2116 71.566 15.3572 71.7123 15.4609C71.86 15.5646 72.0333 15.6165 72.2322 15.6165C72.3628 15.6165 72.4814 15.5937 72.588 15.5483C72.6945 15.5028 72.7847 15.4375 72.8586 15.3523C72.9324 15.267 72.985 15.1648 73.0162 15.0455H73.5191C73.4907 15.2386 73.4204 15.4126 73.3082 15.5675C73.1974 15.7209 73.0503 15.843 72.8671 15.9339C72.6853 16.0234 72.4736 16.0682 72.2322 16.0682Z" fill="black"/>
<path d="M24.6274 23.0767C24.42 23.0767 24.2318 23.0376 24.0628 22.9595C23.8937 22.88 23.7595 22.7656 23.6601 22.6165C23.5606 22.4659 23.5109 22.2841 23.5109 22.071C23.5109 21.8835 23.5479 21.7315 23.6217 21.6151C23.6956 21.4972 23.7943 21.4048 23.9179 21.3381C24.0415 21.2713 24.1778 21.2216 24.327 21.1889C24.4775 21.1548 24.6288 21.1278 24.7808 21.108C24.9797 21.0824 25.1409 21.0632 25.2645 21.0504C25.3895 21.0362 25.4804 21.0128 25.5372 20.9801C25.5954 20.9474 25.6246 20.8906 25.6246 20.8097V20.7926C25.6246 20.5824 25.567 20.419 25.452 20.3026C25.3383 20.1861 25.1657 20.1278 24.9342 20.1278C24.6942 20.1278 24.5059 20.1804 24.3696 20.2855C24.2332 20.3906 24.1373 20.5028 24.0819 20.6222L23.6047 20.4517C23.6899 20.2528 23.8035 20.098 23.9456 19.9872C24.089 19.875 24.2453 19.7969 24.4143 19.7528C24.5848 19.7074 24.7524 19.6847 24.9172 19.6847C25.0223 19.6847 25.143 19.6974 25.2794 19.723C25.4172 19.7472 25.55 19.7976 25.6778 19.8743C25.8071 19.951 25.9143 20.0668 25.9996 20.2216C26.0848 20.3764 26.1274 20.5838 26.1274 20.8438V23H25.6246V22.5568H25.599C25.5649 22.6278 25.5081 22.7038 25.4285 22.7848C25.349 22.8658 25.2432 22.9347 25.1111 22.9915C24.979 23.0483 24.8177 23.0767 24.6274 23.0767ZM24.7041 22.625C24.903 22.625 25.0706 22.5859 25.2069 22.5078C25.3447 22.4297 25.4484 22.3288 25.518 22.2053C25.589 22.0817 25.6246 21.9517 25.6246 21.8153V21.3551C25.6032 21.3807 25.5564 21.4041 25.4839 21.4254C25.4129 21.4453 25.3305 21.4631 25.2368 21.4787C25.1444 21.4929 25.0542 21.5057 24.9662 21.517C24.8795 21.527 24.8092 21.5355 24.7552 21.5426C24.6246 21.5597 24.5024 21.5874 24.3888 21.6257C24.2765 21.6626 24.1856 21.7188 24.116 21.794C24.0479 21.8679 24.0138 21.9687 24.0138 22.0966C24.0138 22.2713 24.0784 22.4034 24.2077 22.4929C24.3383 22.581 24.5038 22.625 24.7041 22.625Z" fill="black"/>
<path d="M28.281 23.0682C28.0083 23.0682 27.7675 22.9993 27.5587 22.8615C27.3499 22.7223 27.1865 22.5263 27.0686 22.2734C26.9507 22.0192 26.8918 21.7188 26.8918 21.3722C26.8918 21.0284 26.9507 20.7301 27.0686 20.4773C27.1865 20.2244 27.3506 20.0291 27.5608 19.8913C27.771 19.7536 28.0139 19.6847 28.2895 19.6847C28.5026 19.6847 28.6709 19.7202 28.7945 19.7912C28.9195 19.8608 29.0146 19.9403 29.08 20.0298C29.1468 20.1179 29.1986 20.1903 29.2355 20.2472H29.2781V18.6364H29.781V23H29.2952V22.4972H29.2355C29.1986 22.5568 29.146 22.6321 29.0779 22.723C29.0097 22.8125 28.9124 22.8928 28.786 22.9638C28.6595 23.0334 28.4912 23.0682 28.281 23.0682ZM28.3492 22.6165C28.5509 22.6165 28.7213 22.5639 28.8605 22.4588C28.9997 22.3523 29.1056 22.2053 29.178 22.0178C29.2504 21.8288 29.2867 21.6108 29.2867 21.3636C29.2867 21.1193 29.2512 20.9055 29.1801 20.7223C29.1091 20.5376 29.004 20.3942 28.8648 20.2919C28.7256 20.1882 28.5537 20.1364 28.3492 20.1364C28.1361 20.1364 27.9585 20.1911 27.8165 20.3004C27.6759 20.4084 27.57 20.5554 27.499 20.7415C27.4294 20.9261 27.3946 21.1335 27.3946 21.3636C27.3946 21.5966 27.4301 21.8082 27.5012 21.9986C27.5736 22.1875 27.6801 22.3381 27.8208 22.4503C27.9628 22.5611 28.1389 22.6165 28.3492 22.6165Z" fill="black"/>
<path d="M33.0899 20.4602L32.6382 20.5881C32.6098 20.5128 32.5679 20.4396 32.5125 20.3686C32.4585 20.2962 32.3847 20.2365 32.2909 20.1896C32.1972 20.1428 32.0771 20.1193 31.9308 20.1193C31.7306 20.1193 31.5637 20.1655 31.4301 20.2578C31.298 20.3487 31.232 20.4645 31.232 20.6051C31.232 20.7301 31.2774 20.8288 31.3683 20.9013C31.4593 20.9737 31.6013 21.0341 31.7945 21.0824L32.2803 21.2017C32.5729 21.2727 32.7909 21.3814 32.9344 21.5277C33.0779 21.6726 33.1496 21.8594 33.1496 22.0881C33.1496 22.2756 33.0956 22.4432 32.9877 22.5909C32.8811 22.7386 32.732 22.8551 32.5402 22.9403C32.3485 23.0256 32.1254 23.0682 31.8712 23.0682C31.5374 23.0682 31.2611 22.9957 31.0423 22.8509C30.8236 22.706 30.6851 22.4943 30.6269 22.2159L31.1041 22.0966C31.1496 22.2727 31.2355 22.4048 31.3619 22.4929C31.4898 22.581 31.6567 22.625 31.8627 22.625C32.097 22.625 32.2831 22.5753 32.4209 22.4759C32.5601 22.375 32.6297 22.2543 32.6297 22.1136C32.6297 22 32.5899 21.9048 32.5104 21.8281C32.4308 21.75 32.3087 21.6918 32.1439 21.6534L31.5985 21.5256C31.2987 21.4545 31.0786 21.3445 30.9379 21.1953C30.7987 21.0447 30.7291 20.8565 30.7291 20.6307C30.7291 20.446 30.781 20.2827 30.8847 20.1406C30.9898 19.9986 31.1325 19.8871 31.3129 19.8061C31.4948 19.7251 31.7007 19.6847 31.9308 19.6847C32.2547 19.6847 32.509 19.7557 32.6936 19.8977C32.8797 20.0398 33.0118 20.2273 33.0899 20.4602Z" fill="black"/>
<path d="M34.8696 23.0767C34.6622 23.0767 34.474 23.0376 34.305 22.9595C34.1359 22.88 34.0017 22.7656 33.9023 22.6165C33.8028 22.4659 33.7531 22.2841 33.7531 22.071C33.7531 21.8835 33.79 21.7315 33.8639 21.6151C33.9378 21.4972 34.0365 21.4048 34.1601 21.3381C34.2836 21.2713 34.42 21.2216 34.5692 21.1889C34.7197 21.1548 34.871 21.1278 35.023 21.108C35.2219 21.0824 35.3831 21.0632 35.5067 21.0504C35.6317 21.0362 35.7226 21.0128 35.7794 20.9801C35.8376 20.9474 35.8667 20.8906 35.8667 20.8097V20.7926C35.8667 20.5824 35.8092 20.419 35.6942 20.3026C35.5805 20.1861 35.4079 20.1278 35.1764 20.1278C34.9363 20.1278 34.7481 20.1804 34.6118 20.2855C34.4754 20.3906 34.3795 20.5028 34.3241 20.6222L33.8469 20.4517C33.9321 20.2528 34.0457 20.098 34.1878 19.9872C34.3312 19.875 34.4875 19.7969 34.6565 19.7528C34.827 19.7074 34.9946 19.6847 35.1594 19.6847C35.2645 19.6847 35.3852 19.6974 35.5216 19.723C35.6594 19.7472 35.7922 19.7976 35.92 19.8743C36.0493 19.951 36.1565 20.0668 36.2417 20.2216C36.327 20.3764 36.3696 20.5838 36.3696 20.8438V23H35.8667V22.5568H35.8412C35.8071 22.6278 35.7503 22.7038 35.6707 22.7848C35.5912 22.8658 35.4854 22.9347 35.3532 22.9915C35.2211 23.0483 35.0599 23.0767 34.8696 23.0767ZM34.9463 22.625C35.1452 22.625 35.3128 22.5859 35.4491 22.5078C35.5869 22.4297 35.6906 22.3288 35.7602 22.2053C35.8312 22.0817 35.8667 21.9517 35.8667 21.8153V21.3551C35.8454 21.3807 35.7986 21.4041 35.7261 21.4254C35.6551 21.4453 35.5727 21.4631 35.479 21.4787C35.3866 21.4929 35.2964 21.5057 35.2084 21.517C35.1217 21.527 35.0514 21.5355 34.9974 21.5426C34.8667 21.5597 34.7446 21.5874 34.6309 21.6257C34.5187 21.6626 34.4278 21.7188 34.3582 21.794C34.29 21.8679 34.2559 21.9687 34.2559 22.0966C34.2559 22.2713 34.3206 22.4034 34.4498 22.4929C34.5805 22.581 34.746 22.625 34.9463 22.625Z" fill="black"/>
<path d="M39.6056 20.4602L39.1539 20.5881C39.1254 20.5128 39.0835 20.4396 39.0281 20.3686C38.9742 20.2962 38.9003 20.2365 38.8066 20.1896C38.7128 20.1428 38.5928 20.1193 38.4465 20.1193C38.2462 20.1193 38.0793 20.1655 37.9458 20.2578C37.8137 20.3487 37.7476 20.4645 37.7476 20.6051C37.7476 20.7301 37.7931 20.8288 37.884 20.9013C37.9749 20.9737 38.1169 21.0341 38.3101 21.0824L38.7959 21.2017C39.0885 21.2727 39.3066 21.3814 39.45 21.5277C39.5935 21.6726 39.6652 21.8594 39.6652 22.0881C39.6652 22.2756 39.6112 22.4432 39.5033 22.5909C39.3968 22.7386 39.2476 22.8551 39.0558 22.9403C38.8641 23.0256 38.6411 23.0682 38.3868 23.0682C38.053 23.0682 37.7767 22.9957 37.558 22.8509C37.3392 22.706 37.2007 22.4943 37.1425 22.2159L37.6198 22.0966C37.6652 22.2727 37.7512 22.4048 37.8776 22.4929C38.0054 22.581 38.1723 22.625 38.3783 22.625C38.6127 22.625 38.7987 22.5753 38.9365 22.4759C39.0757 22.375 39.1453 22.2543 39.1453 22.1136C39.1453 22 39.1056 21.9048 39.026 21.8281C38.9465 21.75 38.8243 21.6918 38.6595 21.6534L38.1141 21.5256C37.8144 21.4545 37.5942 21.3445 37.4536 21.1953C37.3144 21.0447 37.2448 20.8565 37.2448 20.6307C37.2448 20.446 37.2966 20.2827 37.4003 20.1406C37.5054 19.9986 37.6482 19.8871 37.8286 19.8061C38.0104 19.7251 38.2164 19.6847 38.4465 19.6847C38.7703 19.6847 39.0246 19.7557 39.2093 19.8977C39.3953 20.0398 39.5274 20.2273 39.6056 20.4602Z" fill="black"/>
<path d="M41.6579 23.0682C41.3852 23.0682 41.1444 22.9993 40.9356 22.8615C40.7268 22.7223 40.5635 22.5263 40.4456 22.2734C40.3277 22.0192 40.2687 21.7188 40.2687 21.3722C40.2687 21.0284 40.3277 20.7301 40.4456 20.4773C40.5635 20.2244 40.7275 20.0291 40.9378 19.8913C41.148 19.7536 41.3909 19.6847 41.6665 19.6847C41.8795 19.6847 42.0479 19.7202 42.1714 19.7912C42.2964 19.8608 42.3916 19.9403 42.4569 20.0298C42.5237 20.1179 42.5756 20.1903 42.6125 20.2472H42.6551V18.6364H43.1579V23H42.6721V22.4972H42.6125C42.5756 22.5568 42.523 22.6321 42.4548 22.723C42.3866 22.8125 42.2893 22.8928 42.1629 22.9638C42.0365 23.0334 41.8682 23.0682 41.6579 23.0682ZM41.7261 22.6165C41.9278 22.6165 42.0983 22.5639 42.2375 22.4588C42.3767 22.3523 42.4825 22.2053 42.555 22.0178C42.6274 21.8288 42.6636 21.6108 42.6636 21.3636C42.6636 21.1193 42.6281 20.9055 42.5571 20.7223C42.4861 20.5376 42.3809 20.3942 42.2417 20.2919C42.1025 20.1882 41.9307 20.1364 41.7261 20.1364C41.5131 20.1364 41.3355 20.1911 41.1934 20.3004C41.0528 20.4084 40.947 20.5554 40.876 20.7415C40.8064 20.9261 40.7716 21.1335 40.7716 21.3636C40.7716 21.5966 40.8071 21.8082 40.8781 21.9986C40.9506 22.1875 41.0571 22.3381 41.1977 22.4503C41.3398 22.5611 41.5159 22.6165 41.7261 22.6165Z" fill="black"/>
<path d="M45.1118 23.0767C44.9044 23.0767 44.7162 23.0376 44.5471 22.9595C44.3781 22.88 44.2439 22.7656 44.1444 22.6165C44.045 22.4659 43.9953 22.2841 43.9953 22.071C43.9953 21.8835 44.0322 21.7315 44.1061 21.6151C44.18 21.4972 44.2787 21.4048 44.4023 21.3381C44.5258 21.2713 44.6622 21.2216 44.8113 21.1889C44.9619 21.1548 45.1132 21.1278 45.2652 21.108C45.464 21.0824 45.6253 21.0632 45.7488 21.0504C45.8738 21.0362 45.9648 21.0128 46.0216 20.9801C46.0798 20.9474 46.1089 20.8906 46.1089 20.8097V20.7926C46.1089 20.5824 46.0514 20.419 45.9363 20.3026C45.8227 20.1861 45.6501 20.1278 45.4186 20.1278C45.1785 20.1278 44.9903 20.1804 44.854 20.2855C44.7176 20.3906 44.6217 20.5028 44.5663 20.6222L44.089 20.4517C44.1743 20.2528 44.2879 20.098 44.43 19.9872C44.5734 19.875 44.7297 19.7969 44.8987 19.7528C45.0692 19.7074 45.2368 19.6847 45.4015 19.6847C45.5067 19.6847 45.6274 19.6974 45.7638 19.723C45.9015 19.7472 46.0344 19.7976 46.1622 19.8743C46.2915 19.951 46.3987 20.0668 46.4839 20.2216C46.5692 20.3764 46.6118 20.5838 46.6118 20.8438V23H46.1089V22.5568H46.0834C46.0493 22.6278 45.9925 22.7038 45.9129 22.7848C45.8334 22.8658 45.7275 22.9347 45.5954 22.9915C45.4633 23.0483 45.3021 23.0767 45.1118 23.0767ZM45.1885 22.625C45.3873 22.625 45.555 22.5859 45.6913 22.5078C45.8291 22.4297 45.9328 22.3288 46.0024 22.2053C46.0734 22.0817 46.1089 21.9517 46.1089 21.8153V21.3551C46.0876 21.3807 46.0408 21.4041 45.9683 21.4254C45.8973 21.4453 45.8149 21.4631 45.7211 21.4787C45.6288 21.4929 45.5386 21.5057 45.4506 21.517C45.3639 21.527 45.2936 21.5355 45.2396 21.5426C45.1089 21.5597 44.9868 21.5874 44.8731 21.6257C44.7609 21.6626 44.67 21.7188 44.6004 21.794C44.5322 21.8679 44.4981 21.9687 44.4981 22.0966C44.4981 22.2713 44.5628 22.4034 44.692 22.4929C44.8227 22.581 44.9882 22.625 45.1885 22.625Z" fill="black"/>
<path d="M48.7654 23.0682C48.4926 23.0682 48.2519 22.9993 48.0431 22.8615C47.8342 22.7223 47.6709 22.5263 47.553 22.2734C47.4351 22.0192 47.3762 21.7188 47.3762 21.3722C47.3762 21.0284 47.4351 20.7301 47.553 20.4773C47.6709 20.2244 47.835 20.0291 48.0452 19.8913C48.2554 19.7536 48.4983 19.6847 48.7739 19.6847C48.9869 19.6847 49.1553 19.7202 49.2789 19.7912C49.4039 19.8608 49.499 19.9403 49.5644 20.0298C49.6311 20.1179 49.683 20.1903 49.7199 20.2472H49.7625V18.6364H50.2654V23H49.7796V22.4972H49.7199C49.683 22.5568 49.6304 22.6321 49.5622 22.723C49.4941 22.8125 49.3967 22.8928 49.2703 22.9638C49.1439 23.0334 48.9756 23.0682 48.7654 23.0682ZM48.8335 22.6165C49.0352 22.6165 49.2057 22.5639 49.3449 22.4588C49.4841 22.3523 49.5899 22.2053 49.6624 22.0178C49.7348 21.8288 49.771 21.6108 49.771 21.3636C49.771 21.1193 49.7355 20.9055 49.6645 20.7223C49.5935 20.5376 49.4884 20.3942 49.3492 20.2919C49.21 20.1882 49.0381 20.1364 48.8335 20.1364C48.6205 20.1364 48.4429 20.1911 48.3009 20.3004C48.1602 20.4084 48.0544 20.5554 47.9834 20.7415C47.9138 20.9261 47.879 21.1335 47.879 21.3636C47.879 21.5966 47.9145 21.8082 47.9855 21.9986C48.058 22.1875 48.1645 22.3381 48.3051 22.4503C48.4472 22.5611 48.6233 22.6165 48.8335 22.6165Z" fill="black"/>
<path d="M53.5743 20.4602L53.1226 20.5881C53.0942 20.5128 53.0523 20.4396 52.9969 20.3686C52.9429 20.2962 52.8691 20.2365 52.7753 20.1896C52.6816 20.1428 52.5615 20.1193 52.4152 20.1193C52.2149 20.1193 52.048 20.1655 51.9145 20.2578C51.7824 20.3487 51.7164 20.4645 51.7164 20.6051C51.7164 20.7301 51.7618 20.8288 51.8527 20.9013C51.9436 20.9737 52.0857 21.0341 52.2789 21.0824L52.7646 21.2017C53.0573 21.2727 53.2753 21.3814 53.4188 21.5277C53.5622 21.6726 53.634 21.8594 53.634 22.0881C53.634 22.2756 53.58 22.4432 53.472 22.5909C53.3655 22.7386 53.2164 22.8551 53.0246 22.9403C52.8328 23.0256 52.6098 23.0682 52.3556 23.0682C52.0217 23.0682 51.7455 22.9957 51.5267 22.8509C51.308 22.706 51.1695 22.4943 51.1112 22.2159L51.5885 22.0966C51.634 22.2727 51.7199 22.4048 51.8463 22.4929C51.9742 22.581 52.1411 22.625 52.347 22.625C52.5814 22.625 52.7675 22.5753 52.9053 22.4759C53.0445 22.375 53.1141 22.2543 53.1141 22.1136C53.1141 22 53.0743 21.9048 52.9948 21.8281C52.9152 21.75 52.7931 21.6918 52.6283 21.6534L52.0828 21.5256C51.7831 21.4545 51.5629 21.3445 51.4223 21.1953C51.2831 21.0447 51.2135 20.8565 51.2135 20.6307C51.2135 20.446 51.2654 20.2827 51.3691 20.1406C51.4742 19.9986 51.6169 19.8871 51.7973 19.8061C51.9791 19.7251 52.1851 19.6847 52.4152 19.6847C52.7391 19.6847 52.9933 19.7557 53.178 19.8977C53.3641 20.0398 53.4962 20.2273 53.5743 20.4602Z" fill="black"/>
<path d="M55.354 23.0767C55.1466 23.0767 54.9584 23.0376 54.7893 22.9595C54.6203 22.88 54.4861 22.7656 54.3866 22.6165C54.2872 22.4659 54.2375 22.2841 54.2375 22.071C54.2375 21.8835 54.2744 21.7315 54.3483 21.6151C54.4221 21.4972 54.5209 21.4048 54.6444 21.3381C54.768 21.2713 54.9044 21.2216 55.0535 21.1889C55.2041 21.1548 55.3554 21.1278 55.5074 21.108C55.7062 21.0824 55.8675 21.0632 55.991 21.0504C56.116 21.0362 56.2069 21.0128 56.2638 20.9801C56.322 20.9474 56.3511 20.8906 56.3511 20.8097V20.7926C56.3511 20.5824 56.2936 20.419 56.1785 20.3026C56.0649 20.1861 55.8923 20.1278 55.6608 20.1278C55.4207 20.1278 55.2325 20.1804 55.0961 20.2855C54.9598 20.3906 54.8639 20.5028 54.8085 20.6222L54.3312 20.4517C54.4165 20.2528 54.5301 20.098 54.6721 19.9872C54.8156 19.875 54.9719 19.7969 55.1409 19.7528C55.3113 19.7074 55.479 19.6847 55.6437 19.6847C55.7488 19.6847 55.8696 19.6974 56.0059 19.723C56.1437 19.7472 56.2765 19.7976 56.4044 19.8743C56.5336 19.951 56.6409 20.0668 56.7261 20.2216C56.8113 20.3764 56.854 20.5838 56.854 20.8438V23H56.3511V22.5568H56.3256C56.2915 22.6278 56.2346 22.7038 56.1551 22.7848C56.0755 22.8658 55.9697 22.9347 55.8376 22.9915C55.7055 23.0483 55.5443 23.0767 55.354 23.0767ZM55.4307 22.625C55.6295 22.625 55.7971 22.5859 55.9335 22.5078C56.0713 22.4297 56.175 22.3288 56.2446 22.2053C56.3156 22.0817 56.3511 21.9517 56.3511 21.8153V21.3551C56.3298 21.3807 56.2829 21.4041 56.2105 21.4254C56.1395 21.4453 56.0571 21.4631 55.9633 21.4787C55.871 21.4929 55.7808 21.5057 55.6927 21.517C55.6061 21.527 55.5358 21.5355 55.4818 21.5426C55.3511 21.5597 55.229 21.5874 55.1153 21.6257C55.0031 21.6626 54.9122 21.7188 54.8426 21.794C54.7744 21.8679 54.7403 21.9687 54.7403 22.0966C54.7403 22.2713 54.805 22.4034 54.9342 22.4929C55.0649 22.581 55.2304 22.625 55.4307 22.625Z" fill="black"/>
<path d="M60.0899 20.4602L59.6382 20.5881C59.6098 20.5128 59.5679 20.4396 59.5125 20.3686C59.4585 20.2962 59.3847 20.2365 59.2909 20.1896C59.1972 20.1428 59.0772 20.1193 58.9308 20.1193C58.7306 20.1193 58.5637 20.1655 58.4301 20.2578C58.298 20.3487 58.232 20.4645 58.232 20.6051C58.232 20.7301 58.2774 20.8288 58.3683 20.9013C58.4593 20.9737 58.6013 21.0341 58.7945 21.0824L59.2803 21.2017C59.5729 21.2727 59.7909 21.3814 59.9344 21.5277C60.0779 21.6726 60.1496 21.8594 60.1496 22.0881C60.1496 22.2756 60.0956 22.4432 59.9877 22.5909C59.8811 22.7386 59.732 22.8551 59.5402 22.9403C59.3485 23.0256 59.1254 23.0682 58.8712 23.0682C58.5374 23.0682 58.2611 22.9957 58.0423 22.8509C57.8236 22.706 57.6851 22.4943 57.6269 22.2159L58.1041 22.0966C58.1496 22.2727 58.2355 22.4048 58.3619 22.4929C58.4898 22.581 58.6567 22.625 58.8627 22.625C59.097 22.625 59.2831 22.5753 59.4209 22.4759C59.5601 22.375 59.6297 22.2543 59.6297 22.1136C59.6297 22 59.5899 21.9048 59.5104 21.8281C59.4308 21.75 59.3087 21.6918 59.1439 21.6534L58.5985 21.5256C58.2987 21.4545 58.0786 21.3445 57.9379 21.1953C57.7987 21.0447 57.7291 20.8565 57.7291 20.6307C57.7291 20.446 57.781 20.2827 57.8847 20.1406C57.9898 19.9986 58.1325 19.8871 58.3129 19.8061C58.4948 19.7251 58.7007 19.6847 58.9308 19.6847C59.2547 19.6847 59.509 19.7557 59.6936 19.8977C59.8797 20.0398 60.0118 20.2273 60.0899 20.4602Z" fill="black"/>
<path d="M62.1423 23.0682C61.8696 23.0682 61.6288 22.9993 61.42 22.8615C61.2112 22.7223 61.0479 22.5263 60.93 22.2734C60.8121 22.0192 60.7531 21.7188 60.7531 21.3722C60.7531 21.0284 60.8121 20.7301 60.93 20.4773C61.0479 20.2244 61.2119 20.0291 61.4221 19.8913C61.6324 19.7536 61.8753 19.6847 62.1508 19.6847C62.3639 19.6847 62.5322 19.7202 62.6558 19.7912C62.7808 19.8608 62.876 19.9403 62.9413 20.0298C63.0081 20.1179 63.0599 20.1903 63.0969 20.2472H63.1395V18.6364H63.6423V23H63.1565V22.4972H63.0969C63.0599 22.5568 63.0074 22.6321 62.9392 22.723C62.871 22.8125 62.7737 22.8928 62.6473 22.9638C62.5209 23.0334 62.3525 23.0682 62.1423 23.0682ZM62.2105 22.6165C62.4122 22.6165 62.5827 22.5639 62.7219 22.4588C62.8611 22.3523 62.9669 22.2053 63.0393 22.0178C63.1118 21.8288 63.148 21.6108 63.148 21.3636C63.148 21.1193 63.1125 20.9055 63.0415 20.7223C62.9704 20.5376 62.8653 20.3942 62.7261 20.2919C62.5869 20.1882 62.415 20.1364 62.2105 20.1364C61.9974 20.1364 61.8199 20.1911 61.6778 20.3004C61.5372 20.4084 61.4314 20.5554 61.3604 20.7415C61.2907 20.9261 61.2559 21.1335 61.2559 21.3636C61.2559 21.5966 61.2915 21.8082 61.3625 21.9986C61.4349 22.1875 61.5415 22.3381 61.6821 22.4503C61.8241 22.5611 62.0003 22.6165 62.2105 22.6165Z" fill="black"/>
<path d="M65.5961 23.0767C65.3888 23.0767 65.2006 23.0376 65.0315 22.9595C64.8625 22.88 64.7282 22.7656 64.6288 22.6165C64.5294 22.4659 64.4797 22.2841 64.4797 22.071C64.4797 21.8835 64.5166 21.7315 64.5905 21.6151C64.6643 21.4972 64.763 21.4048 64.8866 21.3381C65.0102 21.2713 65.1466 21.2216 65.2957 21.1889C65.4463 21.1548 65.5976 21.1278 65.7496 21.108C65.9484 21.0824 66.1096 21.0632 66.2332 21.0504C66.3582 21.0362 66.4491 21.0128 66.506 20.9801C66.5642 20.9474 66.5933 20.8906 66.5933 20.8097V20.7926C66.5933 20.5824 66.5358 20.419 66.4207 20.3026C66.3071 20.1861 66.1345 20.1278 65.903 20.1278C65.6629 20.1278 65.4747 20.1804 65.3383 20.2855C65.202 20.3906 65.1061 20.5028 65.0507 20.6222L64.5734 20.4517C64.6586 20.2528 64.7723 20.098 64.9143 19.9872C65.0578 19.875 65.214 19.7969 65.3831 19.7528C65.5535 19.7074 65.7211 19.6847 65.8859 19.6847C65.991 19.6847 66.1118 19.6974 66.2481 19.723C66.3859 19.7472 66.5187 19.7976 66.6466 19.8743C66.7758 19.951 66.8831 20.0668 66.9683 20.2216C67.0535 20.3764 67.0961 20.5838 67.0961 20.8438V23H66.5933V22.5568H66.5677C66.5337 22.6278 66.4768 22.7038 66.3973 22.7848C66.3177 22.8658 66.2119 22.9347 66.0798 22.9915C65.9477 23.0483 65.7865 23.0767 65.5961 23.0767ZM65.6729 22.625C65.8717 22.625 66.0393 22.5859 66.1757 22.5078C66.3135 22.4297 66.4172 22.3288 66.4868 22.2053C66.5578 22.0817 66.5933 21.9517 66.5933 21.8153V21.3551C66.572 21.3807 66.5251 21.4041 66.4527 21.4254C66.3817 21.4453 66.2993 21.4631 66.2055 21.4787C66.1132 21.4929 66.023 21.5057 65.9349 21.517C65.8483 21.527 65.778 21.5355 65.724 21.5426C65.5933 21.5597 65.4711 21.5874 65.3575 21.6257C65.2453 21.6626 65.1544 21.7188 65.0848 21.794C65.0166 21.8679 64.9825 21.9687 64.9825 22.0966C64.9825 22.2713 65.0471 22.4034 65.1764 22.4929C65.3071 22.581 65.4726 22.625 65.6729 22.625Z" fill="black"/>
<path d="M69.2497 23.0682C68.977 23.0682 68.7362 22.9993 68.5274 22.8615C68.3186 22.7223 68.1553 22.5263 68.0374 22.2734C67.9195 22.0192 67.8605 21.7188 67.8605 21.3722C67.8605 21.0284 67.9195 20.7301 68.0374 20.4773C68.1553 20.2244 68.3193 20.0291 68.5296 19.8913C68.7398 19.7536 68.9827 19.6847 69.2583 19.6847C69.4713 19.6847 69.6396 19.7202 69.7632 19.7912C69.8882 19.8608 69.9834 19.9403 70.0487 20.0298C70.1155 20.1179 70.1673 20.1903 70.2043 20.2472H70.2469V18.6364H70.7497V23H70.2639V22.4972H70.2043C70.1673 22.5568 70.1148 22.6321 70.0466 22.723C69.9784 22.8125 69.8811 22.8928 69.7547 22.9638C69.6283 23.0334 69.46 23.0682 69.2497 23.0682ZM69.3179 22.6165C69.5196 22.6165 69.6901 22.5639 69.8293 22.4588C69.9685 22.3523 70.0743 22.2053 70.1468 22.0178C70.2192 21.8288 70.2554 21.6108 70.2554 21.3636C70.2554 21.1193 70.2199 20.9055 70.1489 20.7223C70.0779 20.5376 69.9727 20.3942 69.8335 20.2919C69.6943 20.1882 69.5225 20.1364 69.3179 20.1364C69.1048 20.1364 68.9273 20.1911 68.7852 20.3004C68.6446 20.4084 68.5388 20.5554 68.4678 20.7415C68.3982 20.9261 68.3634 21.1335 68.3634 21.3636C68.3634 21.5966 68.3989 21.8082 68.4699 21.9986C68.5423 22.1875 68.6489 22.3381 68.7895 22.4503C68.9316 22.5611 69.1077 22.6165 69.3179 22.6165Z" fill="black"/>
<path d="M72.7036 23.0767C72.4962 23.0767 72.308 23.0376 72.1389 22.9595C71.9699 22.88 71.8357 22.7656 71.7362 22.6165C71.6368 22.4659 71.5871 22.2841 71.5871 22.071C71.5871 21.8835 71.624 21.7315 71.6979 21.6151C71.7717 21.4972 71.8705 21.4048 71.994 21.3381C72.1176 21.2713 72.254 21.2216 72.4031 21.1889C72.5537 21.1548 72.705 21.1278 72.857 21.108C73.0558 21.0824 73.2171 21.0632 73.3406 21.0504C73.4656 21.0362 73.5566 21.0128 73.6134 20.9801C73.6716 20.9474 73.7007 20.8906 73.7007 20.8097V20.7926C73.7007 20.5824 73.6432 20.419 73.5281 20.3026C73.4145 20.1861 73.2419 20.1278 73.0104 20.1278C72.7703 20.1278 72.5821 20.1804 72.4458 20.2855C72.3094 20.3906 72.2135 20.5028 72.1581 20.6222L71.6808 20.4517C71.7661 20.2528 71.8797 20.098 72.0218 19.9872C72.1652 19.875 72.3215 19.7969 72.4905 19.7528C72.661 19.7074 72.8286 19.6847 72.9933 19.6847C73.0985 19.6847 73.2192 19.6974 73.3556 19.723C73.4933 19.7472 73.6262 19.7976 73.754 19.8743C73.8833 19.951 73.9905 20.0668 74.0757 20.2216C74.161 20.3764 74.2036 20.5838 74.2036 20.8438V23H73.7007V22.5568H73.6752C73.6411 22.6278 73.5843 22.7038 73.5047 22.7848C73.4252 22.8658 73.3193 22.9347 73.1872 22.9915C73.0551 23.0483 72.8939 23.0767 72.7036 23.0767ZM72.7803 22.625C72.9791 22.625 73.1467 22.5859 73.2831 22.5078C73.4209 22.4297 73.5246 22.3288 73.5942 22.2053C73.6652 22.0817 73.7007 21.9517 73.7007 21.8153V21.3551C73.6794 21.3807 73.6325 21.4041 73.5601 21.4254C73.4891 21.4453 73.4067 21.4631 73.3129 21.4787C73.2206 21.4929 73.1304 21.5057 73.0424 21.517C72.9557 21.527 72.8854 21.5355 72.8314 21.5426C72.7007 21.5597 72.5786 21.5874 72.4649 21.6257C72.3527 21.6626 72.2618 21.7188 72.1922 21.794C72.124 21.8679 72.0899 21.9687 72.0899 22.0966C72.0899 22.2713 72.1546 22.4034 72.2838 22.4929C72.4145 22.581 72.58 22.625 72.7803 22.625Z" fill="black"/>
<path d="M77.4395 20.4602L76.9878 20.5881C76.9594 20.5128 76.9175 20.4396 76.8621 20.3686C76.8082 20.2962 76.7343 20.2365 76.6405 20.1896C76.5468 20.1428 76.4268 20.1193 76.2804 20.1193C76.0802 20.1193 75.9133 20.1655 75.7797 20.2578C75.6476 20.3487 75.5816 20.4645 75.5816 20.6051C75.5816 20.7301 75.627 20.8288 75.7179 20.9013C75.8089 20.9737 75.9509 21.0341 76.1441 21.0824L76.6299 21.2017C76.9225 21.2727 77.1405 21.3814 77.284 21.5277C77.4275 21.6726 77.4992 21.8594 77.4992 22.0881C77.4992 22.2756 77.4452 22.4432 77.3373 22.5909C77.2307 22.7386 77.0816 22.8551 76.8898 22.9403C76.6981 23.0256 76.4751 23.0682 76.2208 23.0682C75.887 23.0682 75.6107 22.9957 75.392 22.8509C75.1732 22.706 75.0347 22.4943 74.9765 22.2159L75.4537 22.0966C75.4992 22.2727 75.5851 22.4048 75.7116 22.4929C75.8394 22.581 76.0063 22.625 76.2123 22.625C76.4466 22.625 76.6327 22.5753 76.7705 22.4759C76.9097 22.375 76.9793 22.2543 76.9793 22.1136C76.9793 22 76.9395 21.9048 76.86 21.8281C76.7804 21.75 76.6583 21.6918 76.4935 21.6534L75.9481 21.5256C75.6484 21.4545 75.4282 21.3445 75.2876 21.1953C75.1483 21.0447 75.0787 20.8565 75.0787 20.6307C75.0787 20.446 75.1306 20.2827 75.2343 20.1406C75.3394 19.9986 75.4822 19.8871 75.6626 19.8061C75.8444 19.7251 76.0503 19.6847 76.2804 19.6847C76.6043 19.6847 76.8586 19.7557 77.0432 19.8977C77.2293 20.0398 77.3614 20.2273 77.4395 20.4602Z" fill="black"/>
<path d="M15.6567 30.0767C15.4493 30.0767 15.2611 30.0376 15.0921 29.9595C14.923 29.88 14.7888 29.7656 14.6894 29.6165C14.5899 29.4659 14.5402 29.2841 14.5402 29.071C14.5402 28.8835 14.5771 28.7315 14.651 28.6151C14.7249 28.4972 14.8236 28.4048 14.9472 28.3381C15.0708 28.2713 15.2071 28.2216 15.3563 28.1889C15.5068 28.1548 15.6581 28.1278 15.8101 28.108C16.009 28.0824 16.1702 28.0632 16.2938 28.0504C16.4188 28.0362 16.5097 28.0128 16.5665 27.9801C16.6247 27.9474 16.6539 27.8906 16.6539 27.8097V27.7926C16.6539 27.5824 16.5963 27.419 16.4813 27.3026C16.3676 27.1861 16.195 27.1278 15.9635 27.1278C15.7235 27.1278 15.5352 27.1804 15.3989 27.2855C15.2625 27.3906 15.1666 27.5028 15.1112 27.6222L14.634 27.4517C14.7192 27.2528 14.8328 27.098 14.9749 26.9872C15.1183 26.875 15.2746 26.7969 15.4436 26.7528C15.6141 26.7074 15.7817 26.6847 15.9465 26.6847C16.0516 26.6847 16.1723 26.6974 16.3087 26.723C16.4465 26.7472 16.5793 26.7976 16.7071 26.8743C16.8364 26.951 16.9436 27.0668 17.0289 27.2216C17.1141 27.3764 17.1567 27.5838 17.1567 27.8438V30H16.6539V29.5568H16.6283C16.5942 29.6278 16.5374 29.7038 16.4578 29.7848C16.3783 29.8658 16.2725 29.9347 16.1404 29.9915C16.0083 30.0483 15.847 30.0767 15.6567 30.0767ZM15.7334 29.625C15.9323 29.625 16.0999 29.5859 16.2362 29.5078C16.374 29.4297 16.4777 29.3288 16.5473 29.2053C16.6183 29.0817 16.6539 28.9517 16.6539 28.8153V28.3551C16.6325 28.3807 16.5857 28.4041 16.5132 28.4254C16.4422 28.4453 16.3598 28.4631 16.2661 28.4787C16.1737 28.4929 16.0835 28.5057 15.9955 28.517C15.9088 28.527 15.8385 28.5355 15.7845 28.5426C15.6539 28.5597 15.5317 28.5874 15.4181 28.6257C15.3058 28.6626 15.2149 28.7188 15.1453 28.794C15.0771 28.8679 15.0431 28.9687 15.0431 29.0966C15.0431 29.2713 15.1077 29.4034 15.2369 29.4929C15.3676 29.581 15.5331 29.625 15.7334 29.625Z" fill="black"/>
<path d="M20.3927 27.4602L19.941 27.5881C19.9126 27.5128 19.8707 27.4396 19.8153 27.3686C19.7613 27.2962 19.6874 27.2365 19.5937 27.1896C19.4999 27.1428 19.3799 27.1193 19.2336 27.1193C19.0333 27.1193 18.8664 27.1655 18.7329 27.2578C18.6008 27.3487 18.5347 27.4645 18.5347 27.6051C18.5347 27.7301 18.5802 27.8288 18.6711 27.9013C18.762 27.9737 18.904 28.0341 19.0972 28.0824L19.583 28.2017C19.8756 28.2727 20.0937 28.3814 20.2371 28.5277C20.3806 28.6726 20.4523 28.8594 20.4523 29.0881C20.4523 29.2756 20.3983 29.4432 20.2904 29.5909C20.1839 29.7386 20.0347 29.8551 19.843 29.9403C19.6512 30.0256 19.4282 30.0682 19.1739 30.0682C18.8401 30.0682 18.5638 29.9957 18.3451 29.8509C18.1263 29.706 17.9878 29.4943 17.9296 29.2159L18.4069 29.0966C18.4523 29.2727 18.5383 29.4048 18.6647 29.4929C18.7925 29.581 18.9594 29.625 19.1654 29.625C19.3998 29.625 19.5858 29.5753 19.7236 29.4759C19.8628 29.375 19.9324 29.2543 19.9324 29.1136C19.9324 29 19.8927 28.9048 19.8131 28.8281C19.7336 28.75 19.6114 28.6918 19.4466 28.6534L18.9012 28.5256C18.6015 28.4545 18.3813 28.3445 18.2407 28.1953C18.1015 28.0447 18.0319 27.8565 18.0319 27.6307C18.0319 27.446 18.0837 27.2827 18.1874 27.1406C18.2925 26.9986 18.4353 26.8871 18.6157 26.8061C18.7975 26.7251 19.0035 26.6847 19.2336 26.6847C19.5574 26.6847 19.8117 26.7557 19.9964 26.8977C20.1824 27.0398 20.3145 27.2273 20.3927 27.4602Z" fill="black"/>
<path d="M22.445 30.0682C22.1723 30.0682 21.9316 29.9993 21.7227 29.8615C21.5139 29.7223 21.3506 29.5263 21.2327 29.2734C21.1148 29.0192 21.0558 28.7188 21.0558 28.3722C21.0558 28.0284 21.1148 27.7301 21.2327 27.4773C21.3506 27.2244 21.5146 27.0291 21.7249 26.8913C21.9351 26.7536 22.178 26.6847 22.4536 26.6847C22.6666 26.6847 22.835 26.7202 22.9585 26.7912C23.0835 26.8608 23.1787 26.9403 23.2441 27.0298C23.3108 27.1179 23.3627 27.1903 23.3996 27.2472H23.4422V25.6364H23.945V30H23.4593V29.4972H23.3996C23.3627 29.5568 23.3101 29.6321 23.2419 29.723C23.1737 29.8125 23.0764 29.8928 22.95 29.9638C22.8236 30.0334 22.6553 30.0682 22.445 30.0682ZM22.5132 29.6165C22.7149 29.6165 22.8854 29.5639 23.0246 29.4588C23.1638 29.3523 23.2696 29.2053 23.3421 29.0178C23.4145 28.8288 23.4507 28.6108 23.4507 28.3636C23.4507 28.1193 23.4152 27.9055 23.3442 27.7223C23.2732 27.5376 23.1681 27.3942 23.0289 27.2919C22.8896 27.1882 22.7178 27.1364 22.5132 27.1364C22.3002 27.1364 22.1226 27.1911 21.9806 27.3004C21.8399 27.4084 21.7341 27.5554 21.6631 27.7415C21.5935 27.9261 21.5587 28.1335 21.5587 28.3636C21.5587 28.5966 21.5942 28.8082 21.6652 28.9986C21.7377 29.1875 21.8442 29.3381 21.9848 29.4503C22.1269 29.5611 22.303 29.6165 22.5132 29.6165Z" fill="black"/>
<path d="M25.8989 30.0767C25.6915 30.0767 25.5033 30.0376 25.3343 29.9595C25.1652 29.88 25.031 29.7656 24.9316 29.6165C24.8321 29.4659 24.7824 29.2841 24.7824 29.071C24.7824 28.8835 24.8193 28.7315 24.8932 28.6151C24.9671 28.4972 25.0658 28.4048 25.1894 28.3381C25.3129 28.2713 25.4493 28.2216 25.5985 28.1889C25.749 28.1548 25.9003 28.1278 26.0523 28.108C26.2512 28.0824 26.4124 28.0632 26.536 28.0504C26.661 28.0362 26.7519 28.0128 26.8087 27.9801C26.8669 27.9474 26.896 27.8906 26.896 27.8097V27.7926C26.896 27.5824 26.8385 27.419 26.7235 27.3026C26.6098 27.1861 26.4372 27.1278 26.2057 27.1278C25.9656 27.1278 25.7774 27.1804 25.6411 27.2855C25.5047 27.3906 25.4088 27.5028 25.3534 27.6222L24.8762 27.4517C24.9614 27.2528 25.075 27.098 25.2171 26.9872C25.3605 26.875 25.5168 26.7969 25.6858 26.7528C25.8563 26.7074 26.0239 26.6847 26.1887 26.6847C26.2938 26.6847 26.4145 26.6974 26.5509 26.723C26.6887 26.7472 26.8215 26.7976 26.9493 26.8743C27.0786 26.951 27.1858 27.0668 27.271 27.2216C27.3563 27.3764 27.3989 27.5838 27.3989 27.8438V30H26.896V29.5568H26.8705C26.8364 29.6278 26.7796 29.7038 26.7 29.7848C26.6205 29.8658 26.5146 29.9347 26.3825 29.9915C26.2504 30.0483 26.0892 30.0767 25.8989 30.0767ZM25.9756 29.625C26.1744 29.625 26.3421 29.5859 26.4784 29.5078C26.6162 29.4297 26.7199 29.3288 26.7895 29.2053C26.8605 29.0817 26.896 28.9517 26.896 28.8153V28.3551C26.8747 28.3807 26.8279 28.4041 26.7554 28.4254C26.6844 28.4453 26.602 28.4631 26.5083 28.4787C26.4159 28.4929 26.3257 28.5057 26.2377 28.517C26.151 28.527 26.0807 28.5355 26.0267 28.5426C25.896 28.5597 25.7739 28.5874 25.6602 28.6257C25.548 28.6626 25.4571 28.7188 25.3875 28.794C25.3193 28.8679 25.2852 28.9687 25.2852 29.0966C25.2852 29.2713 25.3499 29.4034 25.4791 29.4929C25.6098 29.581 25.7753 29.625 25.9756 29.625Z" fill="black"/>
<path d="M30.6349 27.4602L30.1831 27.5881C30.1547 27.5128 30.1128 27.4396 30.0574 27.3686C30.0035 27.2962 29.9296 27.2365 29.8358 27.1896C29.7421 27.1428 29.6221 27.1193 29.4758 27.1193C29.2755 27.1193 29.1086 27.1655 28.9751 27.2578C28.843 27.3487 28.7769 27.4645 28.7769 27.6051C28.7769 27.7301 28.8224 27.8288 28.9133 27.9013C29.0042 27.9737 29.1462 28.0341 29.3394 28.0824L29.8252 28.2017C30.1178 28.2727 30.3358 28.3814 30.4793 28.5277C30.6228 28.6726 30.6945 28.8594 30.6945 29.0881C30.6945 29.2756 30.6405 29.4432 30.5326 29.5909C30.426 29.7386 30.2769 29.8551 30.0851 29.9403C29.8934 30.0256 29.6704 30.0682 29.4161 30.0682C29.0823 30.0682 28.806 29.9957 28.5873 29.8509C28.3685 29.706 28.23 29.4943 28.1718 29.2159L28.6491 29.0966C28.6945 29.2727 28.7805 29.4048 28.9069 29.4929C29.0347 29.581 29.2016 29.625 29.4076 29.625C29.642 29.625 29.828 29.5753 29.9658 29.4759C30.105 29.375 30.1746 29.2543 30.1746 29.1136C30.1746 29 30.1349 28.9048 30.0553 28.8281C29.9758 28.75 29.8536 28.6918 29.6888 28.6534L29.1434 28.5256C28.8437 28.4545 28.6235 28.3445 28.4829 28.1953C28.3437 28.0447 28.2741 27.8565 28.2741 27.6307C28.2741 27.446 28.3259 27.2827 28.4296 27.1406C28.5347 26.9986 28.6775 26.8871 28.8579 26.8061C29.0397 26.7251 29.2456 26.6847 29.4758 26.6847C29.7996 26.6847 30.0539 26.7557 30.2385 26.8977C30.4246 27.0398 30.5567 27.2273 30.6349 27.4602Z" fill="black"/>
<path d="M32.6872 30.0682C32.4145 30.0682 32.1737 29.9993 31.9649 29.8615C31.7561 29.7223 31.5928 29.5263 31.4749 29.2734C31.357 29.0192 31.298 28.7188 31.298 28.3722C31.298 28.0284 31.357 27.7301 31.4749 27.4773C31.5928 27.2244 31.7568 27.0291 31.9671 26.8913C32.1773 26.7536 32.4202 26.6847 32.6958 26.6847C32.9088 26.6847 33.0771 26.7202 33.2007 26.7912C33.3257 26.8608 33.4209 26.9403 33.4862 27.0298C33.553 27.1179 33.6048 27.1903 33.6418 27.2472H33.6844V25.6364H34.1872V30H33.7014V29.4972H33.6418C33.6048 29.5568 33.5523 29.6321 33.4841 29.723C33.4159 29.8125 33.3186 29.8928 33.1922 29.9638C33.0658 30.0334 32.8975 30.0682 32.6872 30.0682ZM32.7554 29.6165C32.9571 29.6165 33.1276 29.5639 33.2668 29.4588C33.406 29.3523 33.5118 29.2053 33.5843 29.0178C33.6567 28.8288 33.6929 28.6108 33.6929 28.3636C33.6929 28.1193 33.6574 27.9055 33.5864 27.7223C33.5154 27.5376 33.4102 27.3942 33.271 27.2919C33.1318 27.1882 32.96 27.1364 32.7554 27.1364C32.5423 27.1364 32.3648 27.1911 32.2227 27.3004C32.0821 27.4084 31.9763 27.5554 31.9053 27.7415C31.8357 27.9261 31.8009 28.1335 31.8009 28.3636C31.8009 28.5966 31.8364 28.8082 31.9074 28.9986C31.9798 29.1875 32.0864 29.3381 32.227 29.4503C32.3691 29.5611 32.5452 29.6165 32.7554 29.6165Z" fill="black"/>
<path d="M36.1411 30.0767C35.9337 30.0767 35.7455 30.0376 35.5764 29.9595C35.4074 29.88 35.2732 29.7656 35.1737 29.6165C35.0743 29.4659 35.0246 29.2841 35.0246 29.071C35.0246 28.8835 35.0615 28.7315 35.1354 28.6151C35.2093 28.4972 35.308 28.4048 35.4316 28.3381C35.5551 28.2713 35.6915 28.2216 35.8406 28.1889C35.9912 28.1548 36.1425 28.1278 36.2945 28.108C36.4933 28.0824 36.6546 28.0632 36.7781 28.0504C36.9031 28.0362 36.9941 28.0128 37.0509 27.9801C37.1091 27.9474 37.1382 27.8906 37.1382 27.8097V27.7926C37.1382 27.5824 37.0807 27.419 36.9656 27.3026C36.852 27.1861 36.6794 27.1278 36.4479 27.1278C36.2078 27.1278 36.0196 27.1804 35.8833 27.2855C35.7469 27.3906 35.651 27.5028 35.5956 27.6222L35.1183 27.4517C35.2036 27.2528 35.3172 27.098 35.4593 26.9872C35.6027 26.875 35.759 26.7969 35.928 26.7528C36.0985 26.7074 36.2661 26.6847 36.4308 26.6847C36.536 26.6847 36.6567 26.6974 36.7931 26.723C36.9308 26.7472 37.0637 26.7976 37.1915 26.8743C37.3208 26.951 37.428 27.0668 37.5132 27.2216C37.5985 27.3764 37.6411 27.5838 37.6411 27.8438V30H37.1382V29.5568H37.1127C37.0786 29.6278 37.0217 29.7038 36.9422 29.7848C36.8627 29.8658 36.7568 29.9347 36.6247 29.9915C36.4926 30.0483 36.3314 30.0767 36.1411 30.0767ZM36.2178 29.625C36.4166 29.625 36.5843 29.5859 36.7206 29.5078C36.8584 29.4297 36.9621 29.3288 37.0317 29.2053C37.1027 29.0817 37.1382 28.9517 37.1382 28.8153V28.3551C37.1169 28.3807 37.07 28.4041 36.9976 28.4254C36.9266 28.4453 36.8442 28.4631 36.7504 28.4787C36.6581 28.4929 36.5679 28.5057 36.4798 28.517C36.3932 28.527 36.3229 28.5355 36.2689 28.5426C36.1382 28.5597 36.0161 28.5874 35.9024 28.6257C35.7902 28.6626 35.6993 28.7188 35.6297 28.794C35.5615 28.8679 35.5274 28.9687 35.5274 29.0966C35.5274 29.2713 35.5921 29.4034 35.7213 29.4929C35.852 29.581 36.0175 29.625 36.2178 29.625Z" fill="black"/>
<path d="M39.7947 30.0682C39.5219 30.0682 39.2812 29.9993 39.0724 29.8615C38.8635 29.7223 38.7002 29.5263 38.5823 29.2734C38.4644 29.0192 38.4055 28.7188 38.4055 28.3722C38.4055 28.0284 38.4644 27.7301 38.5823 27.4773C38.7002 27.2244 38.8643 27.0291 39.0745 26.8913C39.2847 26.7536 39.5276 26.6847 39.8032 26.6847C40.0162 26.6847 40.1846 26.7202 40.3082 26.7912C40.4332 26.8608 40.5283 26.9403 40.5937 27.0298C40.6604 27.1179 40.7123 27.1903 40.7492 27.2472H40.7918V25.6364H41.2947V30H40.8089V29.4972H40.7492C40.7123 29.5568 40.6597 29.6321 40.5915 29.723C40.5233 29.8125 40.426 29.8928 40.2996 29.9638C40.1732 30.0334 40.0049 30.0682 39.7947 30.0682ZM39.8628 29.6165C40.0645 29.6165 40.235 29.5639 40.3742 29.4588C40.5134 29.3523 40.6192 29.2053 40.6917 29.0178C40.7641 28.8288 40.8003 28.6108 40.8003 28.3636C40.8003 28.1193 40.7648 27.9055 40.6938 27.7223C40.6228 27.5376 40.5177 27.3942 40.3785 27.2919C40.2393 27.1882 40.0674 27.1364 39.8628 27.1364C39.6498 27.1364 39.4722 27.1911 39.3302 27.3004C39.1895 27.4084 39.0837 27.5554 39.0127 27.7415C38.9431 27.9261 38.9083 28.1335 38.9083 28.3636C38.9083 28.5966 38.9438 28.8082 39.0148 28.9986C39.0873 29.1875 39.1938 29.3381 39.3344 29.4503C39.4765 29.5611 39.6526 29.6165 39.8628 29.6165Z" fill="black"/>
<path d="M44.6036 27.4602L44.1519 27.5881C44.1235 27.5128 44.0816 27.4396 44.0262 27.3686C43.9722 27.2962 43.8983 27.2365 43.8046 27.1896C43.7108 27.1428 43.5908 27.1193 43.4445 27.1193C43.2442 27.1193 43.0773 27.1655 42.9438 27.2578C42.8117 27.3487 42.7457 27.4645 42.7457 27.6051C42.7457 27.7301 42.7911 27.8288 42.882 27.9013C42.9729 27.9737 43.115 28.0341 43.3082 28.0824L43.7939 28.2017C44.0866 28.2727 44.3046 28.3814 44.4481 28.5277C44.5915 28.6726 44.6633 28.8594 44.6633 29.0881C44.6633 29.2756 44.6093 29.4432 44.5013 29.5909C44.3948 29.7386 44.2457 29.8551 44.0539 29.9403C43.8621 30.0256 43.6391 30.0682 43.3849 30.0682C43.051 30.0682 42.7748 29.9957 42.556 29.8509C42.3373 29.706 42.1988 29.4943 42.1405 29.2159L42.6178 29.0966C42.6633 29.2727 42.7492 29.4048 42.8756 29.4929C43.0035 29.581 43.1704 29.625 43.3763 29.625C43.6107 29.625 43.7968 29.5753 43.9346 29.4759C44.0738 29.375 44.1434 29.2543 44.1434 29.1136C44.1434 29 44.1036 28.9048 44.0241 28.8281C43.9445 28.75 43.8224 28.6918 43.6576 28.6534L43.1121 28.5256C42.8124 28.4545 42.5922 28.3445 42.4516 28.1953C42.3124 28.0447 42.2428 27.8565 42.2428 27.6307C42.2428 27.446 42.2947 27.2827 42.3983 27.1406C42.5035 26.9986 42.6462 26.8871 42.8266 26.8061C43.0084 26.7251 43.2144 26.6847 43.4445 26.6847C43.7684 26.6847 44.0226 26.7557 44.2073 26.8977C44.3934 27.0398 44.5255 27.2273 44.6036 27.4602Z" fill="black"/>
<path d="M46.3833 30.0767C46.1759 30.0767 45.9877 30.0376 45.8186 29.9595C45.6496 29.88 45.5154 29.7656 45.4159 29.6165C45.3165 29.4659 45.2668 29.2841 45.2668 29.071C45.2668 28.8835 45.3037 28.7315 45.3776 28.6151C45.4514 28.4972 45.5502 28.4048 45.6737 28.3381C45.7973 28.2713 45.9337 28.2216 46.0828 28.1889C46.2334 28.1548 46.3847 28.1278 46.5367 28.108C46.7355 28.0824 46.8967 28.0632 47.0203 28.0504C47.1453 28.0362 47.2362 28.0128 47.2931 27.9801C47.3513 27.9474 47.3804 27.8906 47.3804 27.8097V27.7926C47.3804 27.5824 47.3229 27.419 47.2078 27.3026C47.0942 27.1861 46.9216 27.1278 46.6901 27.1278C46.45 27.1278 46.2618 27.1804 46.1254 27.2855C45.9891 27.3906 45.8932 27.5028 45.8378 27.6222L45.3605 27.4517C45.4458 27.2528 45.5594 27.098 45.7014 26.9872C45.8449 26.875 46.0012 26.7969 46.1702 26.7528C46.3406 26.7074 46.5083 26.6847 46.673 26.6847C46.7781 26.6847 46.8989 26.6974 47.0352 26.723C47.173 26.7472 47.3058 26.7976 47.4337 26.8743C47.5629 26.951 47.6702 27.0668 47.7554 27.2216C47.8406 27.3764 47.8833 27.5838 47.8833 27.8438V30H47.3804V29.5568H47.3548C47.3208 29.6278 47.2639 29.7038 47.1844 29.7848C47.1048 29.8658 46.999 29.9347 46.8669 29.9915C46.7348 30.0483 46.5736 30.0767 46.3833 30.0767ZM46.46 29.625C46.6588 29.625 46.8264 29.5859 46.9628 29.5078C47.1006 29.4297 47.2043 29.3288 47.2739 29.2053C47.3449 29.0817 47.3804 28.9517 47.3804 28.8153V28.3551C47.3591 28.3807 47.3122 28.4041 47.2398 28.4254C47.1688 28.4453 47.0864 28.4631 46.9926 28.4787C46.9003 28.4929 46.8101 28.5057 46.722 28.517C46.6354 28.527 46.5651 28.5355 46.5111 28.5426C46.3804 28.5597 46.2583 28.5874 46.1446 28.6257C46.0324 28.6626 45.9415 28.7188 45.8719 28.794C45.8037 28.8679 45.7696 28.9687 45.7696 29.0966C45.7696 29.2713 45.8343 29.4034 45.9635 29.4929C46.0942 29.581 46.2597 29.625 46.46 29.625Z" fill="black"/>
<path d="M50.0368 30.0682C49.7641 30.0682 49.5233 29.9993 49.3145 29.8615C49.1057 29.7223 48.9424 29.5263 48.8245 29.2734C48.7066 29.0192 48.6476 28.7188 48.6476 28.3722C48.6476 28.0284 48.7066 27.7301 48.8245 27.4773C48.9424 27.2244 49.1064 27.0291 49.3167 26.8913C49.5269 26.7536 49.7698 26.6847 50.0454 26.6847C50.2584 26.6847 50.4268 26.7202 50.5503 26.7912C50.6753 26.8608 50.7705 26.9403 50.8358 27.0298C50.9026 27.1179 50.9545 27.1903 50.9914 27.2472H51.034V25.6364H51.5368V30H51.051V29.4972H50.9914C50.9545 29.5568 50.9019 29.6321 50.8337 29.723C50.7655 29.8125 50.6682 29.8928 50.5418 29.9638C50.4154 30.0334 50.2471 30.0682 50.0368 30.0682ZM50.105 29.6165C50.3067 29.6165 50.4772 29.5639 50.6164 29.4588C50.7556 29.3523 50.8614 29.2053 50.9339 29.0178C51.0063 28.8288 51.0425 28.6108 51.0425 28.3636C51.0425 28.1193 51.007 27.9055 50.936 27.7223C50.865 27.5376 50.7599 27.3942 50.6207 27.2919C50.4814 27.1882 50.3096 27.1364 50.105 27.1364C49.892 27.1364 49.7144 27.1911 49.5724 27.3004C49.4317 27.4084 49.3259 27.5554 49.2549 27.7415C49.1853 27.9261 49.1505 28.1335 49.1505 28.3636C49.1505 28.5966 49.186 28.8082 49.257 28.9986C49.3295 29.1875 49.436 29.3381 49.5766 29.4503C49.7187 29.5611 49.8948 29.6165 50.105 29.6165Z" fill="black"/>
<path d="M53.4907 30.0767C53.2833 30.0767 53.0951 30.0376 52.926 29.9595C52.757 29.88 52.6228 29.7656 52.5233 29.6165C52.4239 29.4659 52.3742 29.2841 52.3742 29.071C52.3742 28.8835 52.4111 28.7315 52.485 28.6151C52.5589 28.4972 52.6576 28.4048 52.7812 28.3381C52.9047 28.2713 53.0411 28.2216 53.1903 28.1889C53.3408 28.1548 53.4921 28.1278 53.6441 28.108C53.843 28.0824 54.0042 28.0632 54.1278 28.0504C54.2528 28.0362 54.3437 28.0128 54.4005 27.9801C54.4587 27.9474 54.4878 27.8906 54.4878 27.8097V27.7926C54.4878 27.5824 54.4303 27.419 54.3153 27.3026C54.2016 27.1861 54.029 27.1278 53.7975 27.1278C53.5574 27.1278 53.3692 27.1804 53.2329 27.2855C53.0965 27.3906 53.0006 27.5028 52.9452 27.6222L52.468 27.4517C52.5532 27.2528 52.6668 27.098 52.8089 26.9872C52.9523 26.875 53.1086 26.7969 53.2776 26.7528C53.4481 26.7074 53.6157 26.6847 53.7805 26.6847C53.8856 26.6847 54.0063 26.6974 54.1427 26.723C54.2804 26.7472 54.4133 26.7976 54.5411 26.8743C54.6704 26.951 54.7776 27.0668 54.8628 27.2216C54.9481 27.3764 54.9907 27.5838 54.9907 27.8438V30H54.4878V29.5568H54.4623C54.4282 29.6278 54.3714 29.7038 54.2918 29.7848C54.2123 29.8658 54.1064 29.9347 53.9743 29.9915C53.8422 30.0483 53.681 30.0767 53.4907 30.0767ZM53.5674 29.625C53.7662 29.625 53.9339 29.5859 54.0702 29.5078C54.208 29.4297 54.3117 29.3288 54.3813 29.2053C54.4523 29.0817 54.4878 28.9517 54.4878 28.8153V28.3551C54.4665 28.3807 54.4197 28.4041 54.3472 28.4254C54.2762 28.4453 54.1938 28.4631 54.1001 28.4787C54.0077 28.4929 53.9175 28.5057 53.8295 28.517C53.7428 28.527 53.6725 28.5355 53.6185 28.5426C53.4878 28.5597 53.3657 28.5874 53.252 28.6257C53.1398 28.6626 53.0489 28.7188 52.9793 28.794C52.9111 28.8679 52.877 28.9687 52.877 29.0966C52.877 29.2713 52.9417 29.4034 53.0709 29.4929C53.2016 29.581 53.3671 29.625 53.5674 29.625Z" fill="black"/>
<path d="M57.1443 30.0682C56.8715 30.0682 56.6308 29.9993 56.422 29.8615C56.2132 29.7223 56.0498 29.5263 55.9319 29.2734C55.814 29.0192 55.7551 28.7188 55.7551 28.3722C55.7551 28.0284 55.814 27.7301 55.9319 27.4773C56.0498 27.2244 56.2139 27.0291 56.4241 26.8913C56.6343 26.7536 56.8772 26.6847 57.1528 26.6847C57.3659 26.6847 57.5342 26.7202 57.6578 26.7912C57.7828 26.8608 57.8779 26.9403 57.9433 27.0298C58.01 27.1179 58.0619 27.1903 58.0988 27.2472H58.1414V25.6364H58.6443V30H58.1585V29.4972H58.0988C58.0619 29.5568 58.0093 29.6321 57.9411 29.723C57.873 29.8125 57.7757 29.8928 57.6492 29.9638C57.5228 30.0334 57.3545 30.0682 57.1443 30.0682ZM57.2124 29.6165C57.4142 29.6165 57.5846 29.5639 57.7238 29.4588C57.863 29.3523 57.9688 29.2053 58.0413 29.0178C58.1137 28.8288 58.1499 28.6108 58.1499 28.3636C58.1499 28.1193 58.1144 27.9055 58.0434 27.7223C57.9724 27.5376 57.8673 27.3942 57.7281 27.2919C57.5889 27.1882 57.417 27.1364 57.2124 27.1364C56.9994 27.1364 56.8218 27.1911 56.6798 27.3004C56.5392 27.4084 56.4333 27.5554 56.3623 27.7415C56.2927 27.9261 56.2579 28.1335 56.2579 28.3636C56.2579 28.5966 56.2934 28.8082 56.3644 28.9986C56.4369 29.1875 56.5434 29.3381 56.684 29.4503C56.8261 29.5611 57.0022 29.6165 57.2124 29.6165Z" fill="black"/>
<path d="M61.9532 27.4602L61.5015 27.5881C61.4731 27.5128 61.4312 27.4396 61.3758 27.3686C61.3218 27.2962 61.248 27.2365 61.1542 27.1896C61.0605 27.1428 60.9404 27.1193 60.7941 27.1193C60.5938 27.1193 60.4269 27.1655 60.2934 27.2578C60.1613 27.3487 60.0953 27.4645 60.0953 27.6051C60.0953 27.7301 60.1407 27.8288 60.2316 27.9013C60.3225 27.9737 60.4646 28.0341 60.6578 28.0824L61.1436 28.2017C61.4362 28.2727 61.6542 28.3814 61.7977 28.5277C61.9411 28.6726 62.0129 28.8594 62.0129 29.0881C62.0129 29.2756 61.9589 29.4432 61.8509 29.5909C61.7444 29.7386 61.5953 29.8551 61.4035 29.9403C61.2117 30.0256 60.9887 30.0682 60.7345 30.0682C60.4007 30.0682 60.1244 29.9957 59.9056 29.8509C59.6869 29.706 59.5484 29.4943 59.4901 29.2159L59.9674 29.0966C60.0129 29.2727 60.0988 29.4048 60.2252 29.4929C60.3531 29.581 60.52 29.625 60.7259 29.625C60.9603 29.625 61.1464 29.5753 61.2842 29.4759C61.4234 29.375 61.493 29.2543 61.493 29.1136C61.493 29 61.4532 28.9048 61.3737 28.8281C61.2941 28.75 61.172 28.6918 61.0072 28.6534L60.4617 28.5256C60.162 28.4545 59.9418 28.3445 59.8012 28.1953C59.662 28.0447 59.5924 27.8565 59.5924 27.6307C59.5924 27.446 59.6443 27.2827 59.748 27.1406C59.8531 26.9986 59.9958 26.8871 60.1762 26.8061C60.358 26.7251 60.564 26.6847 60.7941 26.6847C61.118 26.6847 61.3722 26.7557 61.5569 26.8977C61.743 27.0398 61.8751 27.2273 61.9532 27.4602Z" fill="black"/>
<path d="M63.7329 30.0767C63.5255 30.0767 63.3373 30.0376 63.1682 29.9595C62.9992 29.88 62.865 29.7656 62.7655 29.6165C62.6661 29.4659 62.6164 29.2841 62.6164 29.071C62.6164 28.8835 62.6533 28.7315 62.7272 28.6151C62.801 28.4972 62.8998 28.4048 63.0233 28.3381C63.1469 28.2713 63.2833 28.2216 63.4324 28.1889C63.583 28.1548 63.7343 28.1278 63.8863 28.108C64.0851 28.0824 64.2464 28.0632 64.3699 28.0504C64.4949 28.0362 64.5859 28.0128 64.6427 27.9801C64.7009 27.9474 64.73 27.8906 64.73 27.8097V27.7926C64.73 27.5824 64.6725 27.419 64.5574 27.3026C64.4438 27.1861 64.2712 27.1278 64.0397 27.1278C63.7996 27.1278 63.6114 27.1804 63.4751 27.2855C63.3387 27.3906 63.2428 27.5028 63.1874 27.6222L62.7101 27.4517C62.7954 27.2528 62.909 27.098 63.051 26.9872C63.1945 26.875 63.3508 26.7969 63.5198 26.7528C63.6903 26.7074 63.8579 26.6847 64.0226 26.6847C64.1278 26.6847 64.2485 26.6974 64.3849 26.723C64.5226 26.7472 64.6555 26.7976 64.7833 26.8743C64.9126 26.951 65.0198 27.0668 65.105 27.2216C65.1903 27.3764 65.2329 27.5838 65.2329 27.8438V30H64.73V29.5568H64.7045C64.6704 29.6278 64.6135 29.7038 64.534 29.7848C64.4545 29.8658 64.3486 29.9347 64.2165 29.9915C64.0844 30.0483 63.9232 30.0767 63.7329 30.0767ZM63.8096 29.625C64.0084 29.625 64.176 29.5859 64.3124 29.5078C64.4502 29.4297 64.5539 29.3288 64.6235 29.2053C64.6945 29.0817 64.73 28.9517 64.73 28.8153V28.3551C64.7087 28.3807 64.6618 28.4041 64.5894 28.4254C64.5184 28.4453 64.436 28.4631 64.3422 28.4787C64.2499 28.4929 64.1597 28.5057 64.0716 28.517C63.985 28.527 63.9147 28.5355 63.8607 28.5426C63.73 28.5597 63.6079 28.5874 63.4942 28.6257C63.382 28.6626 63.2911 28.7188 63.2215 28.794C63.1533 28.8679 63.1192 28.9687 63.1192 29.0966C63.1192 29.2713 63.1839 29.4034 63.3131 29.4929C63.4438 29.581 63.6093 29.625 63.8096 29.625Z" fill="black"/>
<path d="M67.3865 30.0682C67.1137 30.0682 66.873 29.9993 66.6642 29.8615C66.4553 29.7223 66.292 29.5263 66.1741 29.2734C66.0562 29.0192 65.9972 28.7188 65.9972 28.3722C65.9972 28.0284 66.0562 27.7301 66.1741 27.4773C66.292 27.2244 66.4561 27.0291 66.6663 26.8913C66.8765 26.7536 67.1194 26.6847 67.395 26.6847C67.608 26.6847 67.7764 26.7202 67.8999 26.7912C68.0249 26.8608 68.1201 26.9403 68.1855 27.0298C68.2522 27.1179 68.3041 27.1903 68.341 27.2472H68.3836V25.6364H68.8865V30H68.4007V29.4972H68.341C68.3041 29.5568 68.2515 29.6321 68.1833 29.723C68.1151 29.8125 68.0178 29.8928 67.8914 29.9638C67.765 30.0334 67.5967 30.0682 67.3865 30.0682ZM67.4546 29.6165C67.6563 29.6165 67.8268 29.5639 67.966 29.4588C68.1052 29.3523 68.211 29.2053 68.2835 29.0178C68.3559 28.8288 68.3921 28.6108 68.3921 28.3636C68.3921 28.1193 68.3566 27.9055 68.2856 27.7223C68.2146 27.5376 68.1095 27.3942 67.9703 27.2919C67.8311 27.1882 67.6592 27.1364 67.4546 27.1364C67.2416 27.1364 67.064 27.1911 66.922 27.3004C66.7813 27.4084 66.6755 27.5554 66.6045 27.7415C66.5349 27.9261 66.5001 28.1335 66.5001 28.3636C66.5001 28.5966 66.5356 28.8082 66.6066 28.9986C66.6791 29.1875 66.7856 29.3381 66.9262 29.4503C67.0683 29.5611 67.2444 29.6165 67.4546 29.6165Z" fill="black"/>
<path d="M70.8403 30.0767C70.6329 30.0767 70.4447 30.0376 70.2757 29.9595C70.1066 29.88 69.9724 29.7656 69.873 29.6165C69.7735 29.4659 69.7238 29.2841 69.7238 29.071C69.7238 28.8835 69.7607 28.7315 69.8346 28.6151C69.9085 28.4972 70.0072 28.4048 70.1308 28.3381C70.2543 28.2713 70.3907 28.2216 70.5399 28.1889C70.6904 28.1548 70.8417 28.1278 70.9937 28.108C71.1926 28.0824 71.3538 28.0632 71.4774 28.0504C71.6024 28.0362 71.6933 28.0128 71.7501 27.9801C71.8083 27.9474 71.8374 27.8906 71.8374 27.8097V27.7926C71.8374 27.5824 71.7799 27.419 71.6649 27.3026C71.5512 27.1861 71.3786 27.1278 71.1471 27.1278C70.907 27.1278 70.7188 27.1804 70.5825 27.2855C70.4461 27.3906 70.3502 27.5028 70.2948 27.6222L69.8176 27.4517C69.9028 27.2528 70.0164 27.098 70.1585 26.9872C70.3019 26.875 70.4582 26.7969 70.6272 26.7528C70.7977 26.7074 70.9653 26.6847 71.1301 26.6847C71.2352 26.6847 71.3559 26.6974 71.4923 26.723C71.6301 26.7472 71.7629 26.7976 71.8907 26.8743C72.02 26.951 72.1272 27.0668 72.2124 27.2216C72.2977 27.3764 72.3403 27.5838 72.3403 27.8438V30H71.8374V29.5568H71.8119C71.7778 29.6278 71.721 29.7038 71.6414 29.7848C71.5619 29.8658 71.4561 29.9347 71.324 29.9915C71.1918 30.0483 71.0306 30.0767 70.8403 30.0767ZM70.917 29.625C71.1159 29.625 71.2835 29.5859 71.4198 29.5078C71.5576 29.4297 71.6613 29.3288 71.7309 29.2053C71.8019 29.0817 71.8374 28.9517 71.8374 28.8153V28.3551C71.8161 28.3807 71.7693 28.4041 71.6968 28.4254C71.6258 28.4453 71.5434 28.4631 71.4497 28.4787C71.3573 28.4929 71.2671 28.5057 71.1791 28.517C71.0924 28.527 71.0221 28.5355 70.9681 28.5426C70.8375 28.5597 70.7153 28.5874 70.6017 28.6257C70.4894 28.6626 70.3985 28.7188 70.3289 28.794C70.2607 28.8679 70.2267 28.9687 70.2267 29.0966C70.2267 29.2713 70.2913 29.4034 70.4205 29.4929C70.5512 29.581 70.7167 29.625 70.917 29.625Z" fill="black"/>
<path d="M74.4939 30.0682C74.2211 30.0682 73.9804 29.9993 73.7716 29.8615C73.5628 29.7223 73.3994 29.5263 73.2815 29.2734C73.1636 29.0192 73.1047 28.7188 73.1047 28.3722C73.1047 28.0284 73.1636 27.7301 73.2815 27.4773C73.3994 27.2244 73.5635 27.0291 73.7737 26.8913C73.9839 26.7536 74.2268 26.6847 74.5024 26.6847C74.7155 26.6847 74.8838 26.7202 75.0074 26.7912C75.1324 26.8608 75.2275 26.9403 75.2929 27.0298C75.3596 27.1179 75.4115 27.1903 75.4484 27.2472H75.491V25.6364H75.9939V30H75.5081V29.4972H75.4484C75.4115 29.5568 75.3589 29.6321 75.2907 29.723C75.2226 29.8125 75.1253 29.8928 74.9988 29.9638C74.8724 30.0334 74.7041 30.0682 74.4939 30.0682ZM74.5621 29.6165C74.7638 29.6165 74.9342 29.5639 75.0734 29.4588C75.2126 29.3523 75.3184 29.2053 75.3909 29.0178C75.4633 28.8288 75.4996 28.6108 75.4996 28.3636C75.4996 28.1193 75.464 27.9055 75.393 27.7223C75.322 27.5376 75.2169 27.3942 75.0777 27.2919C74.9385 27.1882 74.7666 27.1364 74.5621 27.1364C74.349 27.1364 74.1714 27.1911 74.0294 27.3004C73.8888 27.4084 73.7829 27.5554 73.7119 27.7415C73.6423 27.9261 73.6075 28.1335 73.6075 28.3636C73.6075 28.5966 73.643 28.8082 73.714 28.9986C73.7865 29.1875 73.893 29.3381 74.0336 29.4503C74.1757 29.5611 74.3518 29.6165 74.5621 29.6165Z" fill="black"/>
<path d="M77.9477 30.0767C77.7403 30.0767 77.5521 30.0376 77.3831 29.9595C77.214 29.88 77.0798 29.7656 76.9804 29.6165C76.8809 29.4659 76.8312 29.2841 76.8312 29.071C76.8312 28.8835 76.8682 28.7315 76.942 28.6151C77.0159 28.4972 77.1146 28.4048 77.2382 28.3381C77.3618 28.2713 77.4981 28.2216 77.6473 28.1889C77.7979 28.1548 77.9491 28.1278 78.1011 28.108C78.3 28.0824 78.4612 28.0632 78.5848 28.0504C78.7098 28.0362 78.8007 28.0128 78.8575 27.9801C78.9158 27.9474 78.9449 27.8906 78.9449 27.8097V27.7926C78.9449 27.5824 78.8873 27.419 78.7723 27.3026C78.6586 27.1861 78.4861 27.1278 78.2545 27.1278C78.0145 27.1278 77.8263 27.1804 77.6899 27.2855C77.5535 27.3906 77.4576 27.5028 77.4023 27.6222L76.925 27.4517C77.0102 27.2528 77.1238 27.098 77.2659 26.9872C77.4094 26.875 77.5656 26.7969 77.7346 26.7528C77.9051 26.7074 78.0727 26.6847 78.2375 26.6847C78.3426 26.6847 78.4633 26.6974 78.5997 26.723C78.7375 26.7472 78.8703 26.7976 78.9981 26.8743C79.1274 26.951 79.2346 27.0668 79.3199 27.2216C79.4051 27.3764 79.4477 27.5838 79.4477 27.8438V30H78.9449V29.5568H78.9193C78.8852 29.6278 78.8284 29.7038 78.7488 29.7848C78.6693 29.8658 78.5635 29.9347 78.4314 29.9915C78.2993 30.0483 78.138 30.0767 77.9477 30.0767ZM78.0244 29.625C78.2233 29.625 78.3909 29.5859 78.5273 29.5078C78.665 29.4297 78.7687 29.3288 78.8383 29.2053C78.9094 29.0817 78.9449 28.9517 78.9449 28.8153V28.3551C78.9236 28.3807 78.8767 28.4041 78.8042 28.4254C78.7332 28.4453 78.6508 28.4631 78.5571 28.4787C78.4648 28.4929 78.3746 28.5057 78.2865 28.517C78.1998 28.527 78.1295 28.5355 78.0756 28.5426C77.9449 28.5597 77.8227 28.5874 77.7091 28.6257C77.5969 28.6626 77.506 28.7188 77.4363 28.794C77.3682 28.8679 77.3341 28.9687 77.3341 29.0966C77.3341 29.2713 77.3987 29.4034 77.528 29.4929C77.6586 29.581 77.8241 29.625 78.0244 29.625Z" fill="black"/>
<path d="M82.6837 27.4602L82.232 27.5881C82.2036 27.5128 82.1617 27.4396 82.1063 27.3686C82.0523 27.2962 81.9784 27.2365 81.8847 27.1896C81.7909 27.1428 81.6709 27.1193 81.5246 27.1193C81.3243 27.1193 81.1574 27.1655 81.0239 27.2578C80.8918 27.3487 80.8257 27.4645 80.8257 27.6051C80.8257 27.7301 80.8712 27.8288 80.9621 27.9013C81.053 27.9737 81.195 28.0341 81.3882 28.0824L81.874 28.2017C82.1666 28.2727 82.3847 28.3814 82.5281 28.5277C82.6716 28.6726 82.7433 28.8594 82.7433 29.0881C82.7433 29.2756 82.6894 29.4432 82.5814 29.5909C82.4749 29.7386 82.3257 29.8551 82.134 29.9403C81.9422 30.0256 81.7192 30.0682 81.4649 30.0682C81.1311 30.0682 80.8549 29.9957 80.6361 29.8509C80.4174 29.706 80.2789 29.4943 80.2206 29.2159L80.6979 29.0966C80.7433 29.2727 80.8293 29.4048 80.9557 29.4929C81.0835 29.581 81.2504 29.625 81.4564 29.625C81.6908 29.625 81.8769 29.5753 82.0146 29.4759C82.1539 29.375 82.2235 29.2543 82.2235 29.1136C82.2235 29 82.1837 28.9048 82.1041 28.8281C82.0246 28.75 81.9024 28.6918 81.7377 28.6534L81.1922 28.5256C80.8925 28.4545 80.6723 28.3445 80.5317 28.1953C80.3925 28.0447 80.3229 27.8565 80.3229 27.6307C80.3229 27.446 80.3747 27.2827 80.4784 27.1406C80.5835 26.9986 80.7263 26.8871 80.9067 26.8061C81.0885 26.7251 81.2945 26.6847 81.5246 26.6847C81.8485 26.6847 82.1027 26.7557 82.2874 26.8977C82.4735 27.0398 82.6056 27.2273 82.6837 27.4602Z" fill="black"/>
<path d="M84.7361 30.0682C84.4633 30.0682 84.2226 29.9993 84.0138 29.8615C83.805 29.7223 83.6416 29.5263 83.5237 29.2734C83.4058 29.0192 83.3469 28.7188 83.3469 28.3722C83.3469 28.0284 83.4058 27.7301 83.5237 27.4773C83.6416 27.2244 83.8057 27.0291 84.0159 26.8913C84.2261 26.7536 84.469 26.6847 84.7446 26.6847C84.9577 26.6847 85.126 26.7202 85.2496 26.7912C85.3746 26.8608 85.4697 26.9403 85.5351 27.0298C85.6018 27.1179 85.6537 27.1903 85.6906 27.2472H85.7332V25.6364H86.2361V30H85.7503V29.4972H85.6906C85.6537 29.5568 85.6011 29.6321 85.5329 29.723C85.4648 29.8125 85.3675 29.8928 85.241 29.9638C85.1146 30.0334 84.9463 30.0682 84.7361 30.0682ZM84.8042 29.6165C85.0059 29.6165 85.1764 29.5639 85.3156 29.4588C85.4548 29.3523 85.5606 29.2053 85.6331 29.0178C85.7055 28.8288 85.7417 28.6108 85.7417 28.3636C85.7417 28.1193 85.7062 27.9055 85.6352 27.7223C85.5642 27.5376 85.4591 27.3942 85.3199 27.2919C85.1807 27.1882 85.0088 27.1364 84.8042 27.1364C84.5912 27.1364 84.4136 27.1911 84.2716 27.3004C84.131 27.4084 84.0251 27.5554 83.9541 27.7415C83.8845 27.9261 83.8497 28.1335 83.8497 28.3636C83.8497 28.5966 83.8852 28.8082 83.9562 28.9986C84.0287 29.1875 84.1352 29.3381 84.2758 29.4503C84.4179 29.5611 84.594 29.6165 84.8042 29.6165Z" fill="black"/>
<path d="M132 19H97.5V21H132L183.5 58L184.5 57L132 19Z" fill="#006FBA"/>
<path d="M185 60C186.105 60 187 59.1046 187 58C187 56.8954 186.105 56 185 56C183.895 56 183 56.8954 183 58C183 59.1046 183.895 60 185 60Z" fill="#009E4C"/>
</svg>
